<?xml version="1.0" encoding="utf-8"?>
<!-- Generator: Adobe Illustrator 23.0.1, SVG Export Plug-In . SVG Version: 6.00 Build 0)  -->
<svg version="1.1" id="Calque_1" xmlns="http://www.w3.org/2000/svg" xmlns:xlink="http://www.w3.org/1999/xlink" x="0px" y="0px"
	 viewBox="0 0 500 600" style="enable-background:new 0 0 500 600;" xml:space="preserve">
<style type="text/css">
	.st0{fill:#373737;}
	.st1{opacity:0.2;fill:url(#SVGID_1_);enable-background:new    ;}
	.st2{fill:#94989B;}
	.st3{enable-background:new    ;}
	.st4{fill:url(#SVGID_2_);}
	.st5{fill:url(#SVGID_3_);}
	.st6{fill:#231F20;}
	.st7{fill:#454A4C;}
	.st8{opacity:0.5;fill:#231F20;enable-background:new    ;}
	.st9{fill:#6A06B2;}
	.st10{opacity:0.8;}
	.st11{fill:#141313;}
	.st12{fill:#919395;}
	.st13{fill:url(#SVGID_4_);}
	.st14{fill:url(#SVGID_5_);}
	.st15{opacity:0.5;fill:url(#SVGID_6_);enable-background:new    ;}
	.st16{fill:#FFFFFF;}
	.st17{fill:none;stroke:#FFFFFF;stroke-width:3.1911;stroke-miterlimit:10;}
	.st18{opacity:0.3;}
	.st19{fill:#838689;}
</style>
<path class="st0" d="M171.3,79.7c-1.5,0-14.4-2.9-14.4-2.9l4.3,16.2c0,0,285.3-5.3,285.8-6c0.5-0.7,8.7-15.4,8.7-15.4l-11.6-2.6
	L171.3,79.7z"/>
<radialGradient id="SVGID_1_" cx="328.1809" cy="-436.831" r="324.3028" gradientTransform="matrix(0.9285 0 0 -0.9285 -8.3598 121.0255)" gradientUnits="userSpaceOnUse">
	<stop  offset="0" style="stop-color:#231F20"/>
	<stop  offset="1" style="stop-color:#FFFFFF"/>
</radialGradient>
<polygon class="st1" points="166.7,545.4 81.6,514 39.4,474 348.5,415 456.8,481.7 "/>
<g>
	<path class="st2" d="M168.7,546c-0.3,0-0.6-0.1-0.7-0.3l-45.8-55.5c-0.2-0.3-0.3-0.7-0.1-1s0.5-0.5,0.8-0.5
		c0,0,332.9-7.3,332.9-7.3c0.5,0,0.9,0.4,0.9,0.8c0.1,0.5-0.3,0.9-0.7,1L169.9,546c-0.1,0-0.1,0-0.2,0H168.7z"/>
</g>
<g class="st3">
	
		<linearGradient id="SVGID_2_" gradientUnits="userSpaceOnUse" x1="92.9959" y1="583.8219" x2="189.6747" y2="57.4593" gradientTransform="matrix(1 0 0 -1 0 599)">
		<stop  offset="0" style="stop-color:#313131"/>
		<stop  offset="1" style="stop-color:#1E1E1E"/>
	</linearGradient>
	<polygon class="st4" points="165.6,544.2 120.4,490 120.4,71.9 165.6,84.4 	"/>
</g>
<polygon class="st0" points="383.1,61.5 190.8,68.6 120.7,71.2 167.8,82.7 359.2,74.4 455.8,70.2 "/>
<radialGradient id="SVGID_3_" cx="97.5192" cy="163.3461" r="968.4706" gradientTransform="matrix(0.9285 0 0 -0.9285 -8.3598 121.0255)" gradientUnits="userSpaceOnUse">
	<stop  offset="0.1586" style="stop-color:#4E4E4E"/>
	<stop  offset="1" style="stop-color:#212121"/>
</radialGradient>
<polygon class="st5" points="359.2,74.4 167.8,82.7 167.8,545 455.8,481.5 455.8,70.2 "/>
<g>
	<polygon class="st6" points="168.3,84.5 168.3,545.1 165.4,544.2 165.4,84.8 	"/>
	<polygon class="st6" points="120.7,71.2 120.7,72 139.7,79 165.2,83.9 168.2,84.5 168.2,82.7 	"/>
</g>
<g>
	<polygon class="st7" points="164.7,84.2 164.7,543 166.8,543.1 166.8,84.1 	"/>
	<polygon class="st8" points="167.8,82.7 167.8,545.2 169.4,544.6 169.4,82.6 	"/>
</g>
<polygon class="st9" points="249.3,527.7 384.3,499.3 384.3,71.7 249.3,77.3 "/>
<polygon class="st9" points="197.1,67.8 249.3,77.3 384.2,72.4 326.7,63.8 211.8,67.3 "/>
<g class="st10">
	<g>
		<polygon class="st11" points="138,476.6 148.6,489.3 148.6,490.5 138,477.8 		"/>
	</g>
	<g>
		<polygon class="st11" points="138,474.3 148.6,486.9 148.6,488.1 138,475.5 		"/>
	</g>
	<g>
		<polygon class="st11" points="138,462.7 148.7,475 148.7,479.8 138,467.4 		"/>
	</g>
	<g>
		<polygon class="st11" points="138,451 148.7,463.1 148.7,464.3 138,452.2 		"/>
	</g>
	<g>
		<polygon class="st11" points="138,449.9 148.7,461.9 148.7,462.5 138,450.5 		"/>
	</g>
	<g>
		<polygon class="st11" points="138,448.7 148.7,460.7 148.7,461.3 138,449.3 		"/>
	</g>
	<g>
		<polygon class="st11" points="138,432.8 148.8,444.4 148.8,445 138,433.4 		"/>
	</g>
	<g>
		<polygon class="st11" points="138,429.8 148.8,441.4 148.8,443.2 138,431.6 		"/>
	</g>
	<g>
		<polygon class="st11" points="138,425.6 148.8,437.1 148.8,438.3 138,426.8 		"/>
	</g>
	<g>
		<path class="st12" d="M137.5,420.6l11.9,12.5c0.2,0.2,0.4,0.5,0.5,0.8c0.2,0.3,0.3,0.8,0.4,1.2c0.1,0.4,0.2,0.9,0.3,1.4
			c0.1,0.5,0.1,1,0.1,1.5l-0.2,59.3c0,0.5,0,0.9-0.1,1.2s-0.2,0.6-0.3,0.7s-0.3,0.2-0.4,0.2s-0.3-0.1-0.5-0.4l-11.7-14.1
			c-0.2-0.2-0.3-0.5-0.5-0.8s-0.3-0.7-0.4-1.2s-0.2-0.9-0.3-1.4c-0.1-0.5-0.1-0.9-0.1-1.4l0-57.5c0-0.5,0-0.9,0.1-1.2
			c0.1-0.3,0.1-0.6,0.3-0.8c0.1-0.2,0.3-0.3,0.4-0.3C137.1,420.4,137.3,420.4,137.5,420.6z M138,442.2l10.8,11.9l0-6L138,436.3
			V442.2L138,442.2z M138,467.4l10.7,12.4l0-4.8L138,462.7V467.4L138,467.4z M138,481.3l10.6,12.7l0-3L138,478.4L138,481.3
			L138,481.3z M138,446.3l10.7,12l0-3L138,443.4V446.3L138,446.3z M138,473.8l10.7,12.6l0-2.4L138,471.4L138,473.8L138,473.8z
			 M138,458.6l10.7,12.2l0-2.4L138,456.3L138,458.6L138,458.6z M138,431.6l10.8,11.6l0-1.8L138,429.8L138,431.6L138,431.6z
			 M138,477.8l10.6,12.7v-1.2L138,476.6V477.8L138,477.8z M138,460.4l10.7,12.3v-1.2L138,459.2V460.4L138,460.4z M138,452.2
			l10.7,12.1v-1.2L138,451V452.2L138,452.2z M138,455.7l10.7,12.2v-1.2L138,454.5L138,455.7L138,455.7z M138,475.5l10.6,12.6v-1.2
			L138,474.3L138,475.5L138,475.5z M138,435.1l10.8,11.7v-1.2L138,434V435.1L138,435.1z M138,426.8l10.8,11.5v-1.2L138,425.6V426.8
			L138,426.8z M138,447.5l10.7,12v-0.6l-10.7-12V447.5L138,447.5z M138,450.5l10.7,12.1v-0.6l-10.7-12V450.5L138,450.5z M138,470.3
			l10.7,12.5v-0.6L138,469.7V470.3L138,470.3z M138,433.4l10.8,11.7v-0.6L138,432.8V433.4L138,433.4z M138,449.3l10.7,12v-0.6
			l-10.7-12L138,449.3L138,449.3z M138,461.5l10.7,12.3v-0.6L138,461V461.5L138,461.5z M138,469.1l10.7,12.5V481L138,468.5
			L138,469.1L138,469.1z"/>
	</g>
	<g>
		<polygon class="st11" points="138,459.2 148.7,471.5 148.7,472.7 138,460.4 		"/>
	</g>
	<g>
		<polygon class="st11" points="138,478.4 148.6,491 148.6,494 138,481.3 		"/>
	</g>
	<g>
		<polygon class="st11" points="138,471.4 148.6,484 148.6,486.3 138,473.8 		"/>
	</g>
	<g>
		<polygon class="st11" points="138,469.7 148.6,482.2 148.6,482.8 138,470.3 		"/>
	</g>
	<g>
		<polygon class="st11" points="138,468.5 148.6,481 148.6,481.6 138,469.1 		"/>
	</g>
	<g>
		<polygon class="st11" points="138,461 148.7,473.3 148.7,473.9 138,461.5 		"/>
	</g>
	<g>
		<polygon class="st11" points="138,456.3 148.7,468.5 148.7,470.9 138,458.6 		"/>
	</g>
	<g>
		<polygon class="st11" points="138,454.5 148.7,466.7 148.7,467.9 138,455.7 		"/>
	</g>
	<g>
		<polygon class="st11" points="138,446.9 148.7,458.9 148.7,459.5 138,447.5 		"/>
	</g>
	<g>
		<polygon class="st11" points="138,443.4 148.7,455.3 148.7,458.3 138,446.3 		"/>
	</g>
	<g>
		<polygon class="st11" points="138,436.3 148.8,448 148.7,454.1 138,442.2 		"/>
	</g>
	<g>
		<polygon class="st11" points="138,434 148.8,445.6 148.8,446.8 138,435.1 		"/>
	</g>
</g>
<g>
	<g>
		
			<image style="overflow:visible;opacity:0.2;enable-background:new    ;" width="192" height="175" xlink:href="1E4C5323.png"  transform="matrix(0.9943 0 0 0.9943 224.5829 247.5343)">
		</image>
		<g>
			
				<linearGradient id="SVGID_4_" gradientUnits="userSpaceOnUse" x1="232.3858" y1="241.1696" x2="402.0038" y2="241.1696" gradientTransform="matrix(0.9907 -7.330000e-02 -7.540000e-02 -1.0183 16.3897 598.9272)">
				<stop  offset="0" style="stop-color:#FFFFFF"/>
				<stop  offset="1" style="stop-color:#E9E9EA"/>
			</linearGradient>
			<path class="st13" d="M395.8,315.1c-2.8-37.5-42.6-65.2-89-61.8s-81.8,36.6-79,74.2s42.6,65.2,89,61.8c3.2-0.2,6.4-0.6,9.5-1.1
				c1.7,4,4.4,7.6,7.8,10.4c5.4,4.4,12.6,6.5,19.4,5.7c-4.2-6.7-6.1-14.5-5.5-22.2C378,369.6,397.9,343.6,395.8,315.1z"/>
		</g>
	</g>
	<g>
		
			<linearGradient id="SVGID_5_" gradientUnits="userSpaceOnUse" x1="232.3858" y1="241.1696" x2="402.0038" y2="241.1696" gradientTransform="matrix(0.9907 -7.330000e-02 -7.540000e-02 -1.0183 16.3897 598.9272)">
			<stop  offset="0" style="stop-color:#FFFFFF"/>
			<stop  offset="1" style="stop-color:#E9E9EA"/>
		</linearGradient>
		<path class="st14" d="M395.8,315.1c-2.8-37.5-42.6-65.2-89-61.8s-81.8,36.6-79,74.2s42.6,65.2,89,61.8c3.2-0.2,6.4-0.6,9.5-1.1
			c1.7,4,4.4,7.6,7.8,10.4c5.4,4.4,12.6,6.5,19.4,5.7c-4.2-6.7-6.1-14.5-5.5-22.2C378,369.6,397.9,343.6,395.8,315.1z"/>
		
			<linearGradient id="SVGID_6_" gradientUnits="userSpaceOnUse" x1="232.3858" y1="241.5297" x2="403.2552" y2="241.5297" gradientTransform="matrix(0.9907 -7.330000e-02 -7.540000e-02 -1.0183 16.3897 598.9272)">
			<stop  offset="0" style="stop-color:#FFFFFF"/>
			<stop  offset="1" style="stop-color:#E9E9EA"/>
		</linearGradient>
		<path class="st15" d="M306.8,253.3c-46.4,3.4-81.8,36.6-79,74.2s42.6,65.2,89.1,61.8c3.2-0.2,6.4-0.6,9.5-1.1
			c1.7,4,4.4,7.6,7.8,10.4c5.4,4.4,12.6,6.5,19.4,5.7c-4.2-6.7-6.1-14.5-5.5-22.2c30-12.4,50-38.4,47.9-66.9
			C393,277.5,353.2,249.9,306.8,253.3z M349.2,380.5l-0.7,0.3l-0.1,0.8c-0.6,7.3,1,14.9,4.7,21.5c-6,0.2-12-1.8-16.7-5.6
			c-3.2-2.6-5.8-6.1-7.5-10l-0.4-1l-1,0.2c-3.2,0.5-6.4,0.9-9.5,1.1c-46.3,3.4-86.2-24.1-89-61.4s32.7-70.4,79-73.8
			s86.2,24.1,89,61.4C399,341.5,380.3,367.7,349.2,380.5z"/>
	</g>
</g>
<g>
	<path class="st16" d="M257,197.5L255,180l5.4-0.6c2.1-0.2,3.4-0.3,4.1-0.2c1,0.2,1.9,0.6,2.6,1.4s1.2,1.9,1.4,3.3
		c0.1,1.1,0,2-0.3,2.8c-0.3,0.8-0.7,1.4-1.2,1.9c-0.5,0.5-1.1,0.8-1.7,1c-0.8,0.3-2,0.5-3.5,0.6l-2.2,0.3l0.7,6.6L257,197.5z
		 M258.8,182.6l0.5,5l1.9-0.2c1.3-0.1,2.2-0.3,2.6-0.6c0.4-0.2,0.8-0.6,1-1s0.3-0.9,0.2-1.4c-0.1-0.6-0.3-1.1-0.7-1.5
		c-0.4-0.4-0.9-0.6-1.5-0.6c-0.4,0-1.2,0-2.5,0.1L258.8,182.6z"/>
	<path class="st16" d="M274,186.7l-3-0.2c0.2-1.3,0.7-2.2,1.4-2.9s1.9-1.1,3.5-1.3c1.4-0.2,2.5-0.1,3.3,0.2s1.3,0.7,1.6,1.2
		c0.4,0.5,0.6,1.5,0.8,3l0.4,3.9c0.1,1.1,0.3,1.9,0.4,2.4s0.4,1.1,0.8,1.6l-3.2,0.4c-0.1-0.2-0.3-0.5-0.4-1
		c-0.1-0.2-0.1-0.3-0.2-0.4c-0.5,0.6-1,1.1-1.6,1.4c-0.6,0.4-1.3,0.6-2,0.6c-1.3,0.1-2.3-0.1-3.1-0.7s-1.3-1.5-1.4-2.6
		c-0.1-0.7,0-1.4,0.3-2c0.3-0.6,0.7-1.1,1.2-1.4s1.4-0.7,2.5-1.1c1.5-0.5,2.5-0.9,3-1.2l0-0.3c-0.1-0.6-0.3-1.1-0.6-1.3
		c-0.3-0.2-0.9-0.3-1.8-0.2c-0.6,0.1-1,0.2-1.3,0.5C274.4,185.6,274.2,186.1,274,186.7z M278.6,188.9c-0.4,0.2-1,0.4-1.9,0.7
		s-1.4,0.6-1.7,0.8c-0.4,0.4-0.5,0.8-0.5,1.3s0.3,0.9,0.6,1.2c0.4,0.3,0.8,0.4,1.3,0.4c0.6-0.1,1.1-0.3,1.6-0.8
		c0.4-0.4,0.6-0.7,0.6-1.2c0-0.3,0-0.9-0.1-1.6L278.6,188.9z"/>
	<path class="st16" d="M295.3,184.2l-3.1,0.9c-0.2-0.6-0.5-1.1-0.9-1.4c-0.4-0.3-0.9-0.4-1.5-0.3c-0.8,0.1-1.4,0.4-1.8,1.1
		s-0.5,1.6-0.4,3c0.2,1.5,0.5,2.5,1.1,3.1s1.2,0.8,2.1,0.7c0.6-0.1,1.1-0.3,1.4-0.7s0.6-1.1,0.6-2l3.2,0.2c-0.2,1.6-0.7,2.8-1.5,3.6
		s-2,1.4-3.6,1.6c-1.8,0.2-3.3-0.2-4.5-1.3c-1.2-1.1-1.9-2.6-2.1-4.7c-0.2-2.1,0.1-3.8,1-5.1c0.9-1.3,2.3-2,4.1-2.2
		c1.5-0.2,2.7,0,3.6,0.6S294.8,182.9,295.3,184.2z"/>
	<path class="st16" d="M298.6,192.9l-1.9-17.5l3.2-0.4l1,9.3l3.3-4.9l4-0.4l-3.6,5.1l5.4,7.6l-3.5,0.4l-3.7-5.4l-1.3,1.8l0.5,4.1
		L298.6,192.9z"/>
</g>
<g>
	<g>
		<path class="st9" d="M353,284.1l5.5-0.7c1.2-0.2,2.2-0.2,2.9-0.1c0.9,0.1,1.7,0.5,2.4,1.1c0.7,0.6,1.3,1.3,1.8,2.3
			c0.5,0.9,0.8,2.1,1,3.5c0.2,1.2,0.2,2.3,0,3.3c-0.2,1.1-0.6,2.1-1.2,2.9c-0.5,0.6-1.1,1.1-1.9,1.5c-0.6,0.3-1.5,0.5-2.6,0.7
			l-5.6,0.7L353,284.1z M356.4,286.2l1.4,9.9l2.2-0.3c0.8-0.1,1.4-0.2,1.8-0.4c0.5-0.2,0.8-0.5,1.1-0.8c0.3-0.3,0.5-0.9,0.6-1.5
			c0.1-0.7,0.1-1.6-0.1-2.8s-0.4-2-0.7-2.6s-0.6-1-1-1.3s-0.9-0.5-1.5-0.5c-0.4,0-1.3,0-2.5,0.2L356.4,286.2z"/>
		<path class="st9" d="M383.4,295.4l-3.3,0.4l-1.8-3.2l-5.9,0.8l-0.8,3.6l-3.2,0.4l3.7-15.8l3.2-0.4L383.4,295.4z M377.1,290.2
			l-2.8-5.3l-1.2,5.8L377.1,290.2z"/>
	</g>
</g>
<g>
	<g>
		<g>
			<path class="st16" d="M226.8,484.2c-2.1,1.8-5.4,3.2-9.9,4.1c-5.3,1.1-9.8,0.6-13.7-1.6c-3.9-2.3-6.3-5.6-7.3-10.3
				c-1.1-5.3-0.3-9.9,2.5-13.7s7.2-6.4,13-7.7c4.1-0.9,7.1-1,9.1-0.4l1.8,8.3c-2.6-1-5.2-1.2-7.8-0.6c-3.1,0.7-5.2,2-6.7,4
				c-1.4,2-1.8,4.5-1.2,7.4c0.6,2.8,1.9,4.8,4,6c2.1,1.2,4.5,1.6,7.5,1c2.6-0.6,5.1-1.9,7.3-3.9L226.8,484.2L226.8,484.2
				L226.8,484.2z"/>
			<path class="st16" d="M296.7,456.8l-22.4,4.8c1.4,4.5,5,6.1,10.9,4.9c3.8-0.8,6.9-2.4,9.4-4.6l1.5,7c-2.8,2.3-6.8,3.9-11.9,5
				c-5.5,1.2-10.1,0.7-13.8-1.5c-3.7-2.2-6-5.8-7.1-10.8c-1.1-5.2-0.4-9.7,2.2-13.5c2.6-3.8,6.4-6.1,11.2-7.2
				c5-1.1,9.2-0.5,12.5,1.6c3.4,2.2,5.5,5.6,6.5,10.3L296.7,456.8L296.7,456.8z M285.6,453c-1-4.6-3.4-6.4-7.4-5.5
				c-1.7,0.4-3,1.3-4,2.9s-1.3,3.3-1.2,5.4L285.6,453L285.6,453z"/>
			<path class="st16" d="M335.7,461.9l-10,2.1l-1-4.6l-0.1,0c-1.6,4-4.6,6.5-9.1,7.5c-3.4,0.7-6.1,0.4-8.4-1
				c-2.3-1.3-3.7-3.4-4.3-6.3c-1.3-6.1,1.9-10.5,9.6-13.1l9-3.2c-0.8-3.5-3.2-4.8-7.2-3.9c-4.1,0.9-7.7,2.9-10.9,5.9l-1.6-7.3
				c1.3-1,3.2-2,5.6-3.1c2.4-1.1,4.7-1.9,6.8-2.3c9.8-2.1,15.5,1.3,17.5,10.3L335.7,461.9L335.7,461.9z M323,451.3l-0.5-2.1
				l-6.1,2.1c-3.4,1.2-4.7,2.9-4.2,5.3c0.2,1.1,0.8,1.9,1.8,2.5c1,0.6,2.2,0.6,3.6,0.3c1.9-0.4,3.4-1.4,4.5-3
				C323.2,455,323.5,453.2,323,451.3z"/>
			<path class="st16" d="M364.3,455.4c-1.4,1.1-3.6,2-6.8,2.7c-7.5,1.6-11.9-1.2-13.4-8.3l-3.1-14.4l-5.5,1.2l-1.5-7.2l5.5-1.2
				l-1.5-6.8l9.9-5l2,9.5l7.7-1.6l1.5,7.2l-7.7,1.6l2.7,12.7c0.7,3.3,2.5,4.6,5.3,4c1.1-0.2,2.2-0.8,3.3-1.6L364.3,455.4
				L364.3,455.4z"/>
			<path class="st16" d="M385.4,451.2l-10.5,2.3l-6.8-31.5l10.5-2.3L385.4,451.2z"/>
			<path class="st16" d="M422.9,410.3l-6,34.2l-12,2.6L386,418.2l11.3-2.4l10.1,18.1c1.2,2.1,1.9,3.8,2.3,5.4l0.1,0
				c-0.1-1.5-0.1-3.4,0.1-5.7l1.9-20.9L422.9,410.3L422.9,410.3z"/>
		</g>
		<path class="st17" d="M255.2,442.2"/>
		<g>
			<g>
				<path class="st16" d="M258.8,490.4c1-0.2,1.5-0.8,1.4-1.4c-0.1-0.6-0.7-1-1.7-0.8c-0.4,0.1-0.7,0.1-0.8,0.3l0.5,2.1l0,0l0.6-0.1
					L258.8,490.4z"/>
				<path class="st16" d="M221.5,437.9l14.5,67.5l31.7-6.8l-14.5-67.5L221.5,437.9z M229.5,453.5L241,451l1.2,5.4
					c1.2-3.3,3.7-6.3,7.4-7.1c1.1-0.2,1.2-0.3,2.9-0.4l1.9,8.9c-1.8-0.3-3.3-0.3-4.9,0.1c-2.4,0.5-3.6,1.5-4.6,3.4
					c-1,1.9-0.9,4-0.3,6.7l3.1,14.6l-11.4,2.5C236.3,485,229.5,453.5,229.5,453.5z M247.1,498.6L245,499l-1.5-3.7
					c-0.4-0.8-0.7-1.6-1-2.7l0,0c0,1,0.1,1.9,0.1,2.9v4l-2.1,0.5l-3.9-8.5l2.1-0.5l1.5,3.5c0.4,1,0.9,2.1,1.2,3l0,0
					c-0.1-1-0.1-2.1-0.1-3.3l-0.1-3.8l2.1-0.5l1.5,3.5c0.4,1,0.7,2,1.1,2.9l0,0c-0.1-1-0.1-2.1-0.1-3.2l-0.1-3.8l2-0.4L247.1,498.6z
					 M256,496.7l-5.6,1.2l-1.9-8.9l5.4-1.2l0.4,1.7l-3.4,0.7l0.4,1.9l3.3-0.7l0.3,1.6l-3.3,0.7l0.5,2.1l3.6-0.8L256,496.7z
					 M262.9,494.5c-0.5,0.7-1.5,1.2-3.3,1.6c-1,0.2-1.8,0.3-2.2,0.4l-1.9-8.8c0.5-0.2,1.5-0.5,2.5-0.8c1.2-0.3,2-0.3,2.7,0
					c0.7,0.2,1.2,0.7,1.4,1.5c0.2,0.7-0.1,1.7-1,2.2l0,0c1.1,0.1,2,0.7,2.2,1.9C263.5,493.2,263.3,493.9,262.9,494.5z"/>
				<path class="st16" d="M259.1,491.9l-0.7,0.1l0.5,2.5c0.2,0,0.4-0.1,0.8-0.2c0.9-0.2,1.7-0.7,1.5-1.6S260.2,491.7,259.1,491.9z"
					/>
			</g>
		</g>
	</g>
	<g>
		<path class="st16" d="M271.9,483.1c0.9-0.3,2-0.6,3.3-0.9c2.3-0.5,4-0.3,5.2,0.4c1.3,0.7,2.3,2.1,2.7,4.1s0.2,3.7-0.7,5.1
			s-2.6,2.4-4.9,2.9c-1.1,0.2-2.1,0.3-2.9,0.5L272,483L271.9,483.1z M275.8,493.5c0.4,0,0.9-0.1,1.5-0.2c3.4-0.7,4.7-3,4-6.3
			c-0.6-2.9-2.7-4.4-5.9-3.7c-0.8,0.2-1.4,0.4-1.8,0.6l2.1,9.6L275.8,493.5z"/>
		<path class="st16" d="M286.4,488.2c0.5,2.1,2.1,2.8,3.6,2.4c1.1-0.2,1.8-0.6,2.4-1l0.6,1.1c-0.5,0.3-1.4,0.9-2.7,1.1
			c-2.6,0.6-4.7-0.9-5.2-3.5c-0.6-2.6,0.5-5.1,3.1-5.6c2.9-0.6,4.1,1.8,4.5,3.4c0.1,0.3,0.1,0.6,0.1,0.8L286.4,488.2z M290.9,486.2
			c-0.2-1.1-1-2.6-2.7-2.2c-1.6,0.4-2,2-1.9,3.2L290.9,486.2z M289.6,478.7l-1.6,3.1l-1.1,0.2l1-3L289.6,478.7z"/>
		<path class="st16" d="M294.2,481.7l2.8,4.6c0.5,0.8,0.8,1.4,1.2,2.1l0.1,0c0-0.8,0.1-1.6,0.2-2.4l0.7-5.4l1.6-0.4l-1.5,9.5
			l-1.5,0.3l-5.2-8.1L294.2,481.7z"/>
		<path class="st16" d="M303.9,484.5c0.5,2.1,2.1,2.8,3.6,2.4c1.1-0.2,1.8-0.6,2.4-1l0.6,1.1c-0.5,0.3-1.4,0.9-2.7,1.1
			c-2.6,0.6-4.7-0.9-5.2-3.5c-0.6-2.6,0.5-5.1,3.1-5.6c2.9-0.6,4.1,1.8,4.5,3.4c0.1,0.3,0.1,0.6,0.1,0.8L303.9,484.5z M308.4,482.4
			c-0.2-1.1-1-2.6-2.7-2.2c-1.6,0.4-2,2-1.9,3.2L308.4,482.4z"/>
		<path class="st16" d="M310.2,473.9l1.5-0.3l2.8,12.9l-1.5,0.3L310.2,473.9z"/>
		<path class="st16" d="M324,479.8c0.7,3.3-1.2,5.1-3.3,5.6c-2.4,0.5-4.5-0.8-5.2-3.7c-0.6-3,0.9-5.1,3.3-5.6
			C321.4,475.6,323.5,477.2,324,479.8z M317.2,481.4c0.4,1.9,1.9,3.1,3.4,2.8s2.3-2,1.9-4c-0.3-1.5-1.4-3.2-3.4-2.8
			C317.3,477.8,316.9,479.7,317.2,481.4z"/>
		<path class="st16" d="M325.8,477.9c-0.3-1.2-0.4-2-0.7-2.8l1.4-0.3l0.4,1.5l0,0c0.4-1.2,1.3-2,2.7-2.4c2.1-0.5,4.1,1,4.6,3.7
			c0.7,3.2-0.9,5.2-3,5.6c-1.1,0.2-2.3-0.1-3-0.8l0,0l1,4.8l-1.5,0.3L325.8,477.9z M327.8,479.9c0,0.2,0.1,0.4,0.2,0.6
			c0.5,1,1.6,1.6,2.8,1.4c1.6-0.4,2.4-2,1.9-4c-0.4-1.8-1.6-3.1-3.3-2.7c-1.1,0.2-1.9,1.2-1.9,2.5c-0.1,0.2,0,0.5,0,0.7L327.8,479.9
			L327.8,479.9z"/>
		<path class="st16" d="M336,475.7c-0.3-1.2-0.4-2-0.7-2.8l1.4-0.3l0.4,1.5l0,0c0.4-1.2,1.3-2,2.7-2.4c2.1-0.5,4.1,1,4.6,3.7
			c0.7,3.2-0.9,5.2-3,5.6c-1.1,0.2-2.3-0.1-3-0.8l0,0l1,4.8l-1.5,0.3L336,475.7z M338,477.7c0,0.2,0.1,0.4,0.2,0.6
			c0.5,1,1.6,1.6,2.8,1.4c1.6-0.4,2.4-2,1.9-4c-0.4-1.8-1.6-3.1-3.3-2.7c-1.1,0.2-1.9,1.2-1.9,2.5c-0.1,0.2,0,0.5,0,0.7L338,477.7
			L338,477.7z"/>
		<path class="st16" d="M347.5,475.1c0.5,2.1,2.1,2.8,3.6,2.4c1.1-0.2,1.8-0.6,2.4-1l0.6,1.1c-0.5,0.3-1.4,0.9-2.7,1.1
			c-2.6,0.6-4.7-0.9-5.2-3.5c-0.6-2.6,0.5-5.1,3.1-5.6c2.9-0.6,4.1,1.8,4.5,3.4c0.1,0.3,0.1,0.6,0.1,0.8L347.5,475.1z M351.9,473.1
			c-0.2-1.1-1-2.6-2.7-2.2c-1.6,0.4-2,2-1.9,3.2L351.9,473.1z"/>
		<path class="st16" d="M355.1,471.2c-0.2-1-0.4-1.7-0.6-2.4l1.4-0.3l0.4,1.4l0.1,0c0.3-1,1-1.9,2.4-2.2c1.2-0.3,2.2,0.3,2.8,1.3
			l0,0c0.2-0.6,0.4-1,0.8-1.4c0.4-0.5,1-0.9,1.8-1c1.1-0.2,3,0.1,3.7,3.2l1.1,5.2l-1.5,0.3l-1.1-5c-0.4-1.7-1.2-2.6-2.4-2.4
			c-0.9,0.2-1.5,1-1.5,1.9c-0.1,0.2,0,0.5,0.1,0.9l1.2,5.4l-1.5,0.3L361,471c-0.3-1.4-1.1-2.3-2.4-2c-1,0.2-1.5,1.2-1.6,2
			c-0.1,0.2,0,0.5,0.1,0.8l1.1,5.3l-1.5,0.3l-1.3-6.3L355.1,471.2z"/>
		<path class="st16" d="M371.5,470c0.5,2.1,2.1,2.8,3.6,2.4c1.1-0.2,1.8-0.6,2.4-1l0.6,1.1c-0.5,0.3-1.4,0.9-2.7,1.1
			c-2.6,0.6-4.7-0.9-5.2-3.5c-0.6-2.6,0.5-5.1,3.1-5.6c2.9-0.6,4.1,1.8,4.5,3.4c0.1,0.3,0.1,0.6,0.1,0.8L371.5,470z M375.8,467.9
			c-0.2-1.1-1-2.6-2.7-2.2c-1.6,0.4-2,2-1.9,3.2L375.8,467.9z"/>
		<path class="st16" d="M379.1,466c-0.2-1-0.4-1.7-0.6-2.4l1.4-0.3l0.4,1.5l0,0c0.2-0.9,1.1-2,2.5-2.3c1.2-0.3,3.2,0.1,3.9,3
			l1.1,5.3l-1.5,0.3l-1.1-5.1c-0.3-1.4-1.1-2.5-2.6-2.2c-1,0.2-1.7,1.1-1.8,2c-0.1,0.2,0,0.5,0.1,0.8l1.1,5.3l-1.5,0.3L379.1,466
			L379.1,466z"/>
		<path class="st16" d="M389.8,458.5l0.5,2.5l2.3-0.5l0.3,1.3l-2.3,0.5l1,4.8c0.2,1.1,0.7,1.6,1.6,1.4c0.4-0.1,0.7-0.3,0.9-0.3
			l0.4,1.1c-0.3,0.2-0.8,0.4-1.4,0.5c-0.7,0.1-1.4,0.1-1.9-0.3c-0.5-0.3-0.9-1.1-1.1-2.2l-1-4.8l-1.3,0.3l-0.3-1.3l1.3-0.3l-0.5-2.1
			L389.8,458.5z"/>
		<path class="st16" d="M398.9,459.2l2.1,4.2c0.4,0.9,0.9,1.8,1.2,2.6l0.1,0c0-0.9,0.1-1.9,0.2-2.9l0.5-4.8l1.3-0.3l2.3,4.2
			c0.5,1,1,1.9,1.4,2.7l0.1,0c-0.1-0.9,0-1.9,0.1-3l0.3-4.7l1.5-0.3l-0.9,9.4l-1.4,0.3l-2.2-4c-0.5-0.9-0.9-1.8-1.4-2.7l0,0
			c0,1.1-0.1,2.1-0.2,3l-0.5,4.5l-1.4,0.3l-4.5-8.2L398.9,459.2z"/>
		<path class="st16" d="M413.1,461c0.5,2.1,2.1,2.8,3.6,2.4c1.1-0.2,1.8-0.6,2.4-1l0.6,1.1c-0.5,0.3-1.4,0.9-2.7,1.1
			c-2.6,0.6-4.7-0.9-5.2-3.5s0.5-5.1,3.1-5.6c2.9-0.6,4.1,1.8,4.5,3.4c0.1,0.3,0.1,0.6,0.1,0.8L413.1,461z M417.5,459
			c-0.2-1.1-1-2.6-2.7-2.2c-1.6,0.4-2,2-1.9,3.2L417.5,459z"/>
		<path class="st16" d="M422.1,463.4c-0.1-0.6-0.2-1.5-0.4-2.3l-2.3-10.7l1.5-0.3l1.2,5.5l0,0c0.3-1.1,1.2-1.9,2.6-2.2
			c2.1-0.5,4.1,1,4.6,3.7c0.7,3.2-0.9,5.2-2.9,5.6c-1.2,0.3-2.4,0-3.2-1.1l-0.1,0l0.2,1.5C423.4,463.1,422.1,463.4,422.1,463.4z
			 M423,459.6c0,0.2,0.1,0.4,0.2,0.5c0.5,1,1.6,1.6,2.8,1.4c1.6-0.4,2.4-2,1.9-4c-0.4-1.8-1.6-3.1-3.3-2.7c-1.1,0.2-1.9,1.2-2,2.5
			c0,0.2,0,0.5,0,0.7L423,459.6z"/>
	</g>
	<ellipse transform="matrix(0.9777 -0.2101 0.2101 0.9777 -78.1615 87.1957)" class="st16" cx="371.3" cy="411.5" rx="5.9" ry="6"/>
</g>
<g class="st18">
	
		<rect x="167.8" y="75.6" transform="matrix(0.999 -4.450042e-02 4.450042e-02 0.999 -3.1008 13.955)" class="st19" width="288.1" height="2"/>
</g>
<g>
	<path class="st16" d="M254.6,111.7l4.2-0.8c0.4,1.4,1,2.4,1.8,3c0.8,0.6,1.9,0.9,3.3,0.8c1.4-0.1,2.4-0.5,3.1-1.2s1-1.4,0.9-2.2
		c0-0.5-0.2-0.9-0.5-1.3c-0.3-0.3-0.9-0.6-1.6-0.8c-0.5-0.1-1.7-0.4-3.6-0.7c-2.4-0.4-4.1-1-5.1-1.8c-1.4-1.1-2.2-2.5-2.3-4.2
		c-0.1-1.1,0.1-2.2,0.7-3.2s1.4-1.8,2.5-2.4c1.1-0.6,2.5-1,4.2-1.1c2.7-0.2,4.8,0.2,6.3,1.3s2.3,2.6,2.5,4.6l-4.4,0.5
		c-0.3-1.1-0.7-1.9-1.4-2.3s-1.6-0.6-2.8-0.5c-1.3,0.1-2.2,0.4-2.9,1c-0.4,0.4-0.6,0.8-0.6,1.4c0,0.5,0.3,0.9,0.8,1.3
		c0.6,0.4,2,0.8,4.1,1.1s3.8,0.7,4.8,1.2c1.1,0.5,1.9,1.1,2.6,2c0.6,0.9,1,2,1.1,3.4c0.1,1.2-0.1,2.4-0.8,3.6s-1.5,2-2.7,2.7
		s-2.8,1-4.6,1.2c-2.7,0.2-4.9-0.3-6.5-1.4C256.2,115.9,255.1,114.1,254.6,111.7z"/>
	<path class="st16" d="M275,99.3l-0.3-3.8l4.1-0.3l0.3,3.8L275,99.3z M276.5,117.1l-1.3-15.7l4.1-0.3l1.3,15.7L276.5,117.1z"/>
	<path class="st16" d="M290.8,100.1l0.3,3.3l-2.8,0.2l0.5,6.3c0.1,1.3,0.2,2,0.3,2.2c0.1,0.2,0.2,0.4,0.4,0.5
		c0.2,0.1,0.4,0.2,0.7,0.2c0.4,0,0.9-0.2,1.6-0.5l0.6,3.2c-0.9,0.5-2,0.8-3.2,0.9c-0.8,0.1-1.4,0-2-0.2s-1.1-0.5-1.4-0.9
		s-0.5-0.9-0.7-1.6c-0.1-0.5-0.3-1.4-0.4-2.9l-0.5-6.8l-1.9,0.2l-0.3-3.3l1.9-0.2l-0.3-3.1l4-2.8l0.4,5.5L290.8,100.1z"/>
	<path class="st16" d="M303.6,109.9l4.2,0.4c-0.4,1.6-1.2,2.8-2.2,3.7c-1.1,0.9-2.5,1.4-4.2,1.5c-2.7,0.2-4.8-0.5-6.3-2.2
		c-1.1-1.3-1.8-3.1-2-5.3c-0.2-2.6,0.3-4.7,1.5-6.3c1.2-1.6,2.9-2.4,5-2.6c2.3-0.2,4.2,0.4,5.7,1.9s2.3,3.7,2.5,6.9l-10.4,0.8
		c0.1,1.2,0.5,2.2,1.2,2.8s1.5,0.9,2.5,0.8c0.6-0.1,1.2-0.3,1.6-0.7S303.5,110.7,303.6,109.9z M303.5,105.7
		c-0.1-1.2-0.5-2.1-1.1-2.7s-1.4-0.8-2.2-0.8c-0.9,0.1-1.6,0.5-2.2,1.2s-0.8,1.6-0.7,2.8L303.5,105.7z"/>
	<path class="st16" d="M323.3,113.3l-6.9-21.2l4.5-0.4l4.5,14.6l2.8-15.2l5.2-0.4l5,14.8l2.1-15.4l4.4-0.3l-3.5,22.1l-4.6,0.4
		L331,96.4l-3,16.5L323.3,113.3z"/>
	<path class="st16" d="M356.8,105.7l4.2,0.4c-0.4,1.6-1.2,2.8-2.2,3.7c-1.1,0.9-2.5,1.4-4.2,1.5c-2.7,0.2-4.8-0.5-6.3-2.2
		c-1.1-1.3-1.8-3.1-2-5.3c-0.2-2.6,0.3-4.7,1.5-6.3c1.2-1.6,2.9-2.4,5-2.6c2.3-0.2,4.2,0.4,5.7,1.9s2.3,3.7,2.5,6.9l-10.4,0.8
		c0.1,1.2,0.5,2.2,1.2,2.8s1.5,0.9,2.5,0.8c0.6-0.1,1.2-0.3,1.6-0.7S356.7,106.5,356.8,105.7z M356.8,101.4
		c-0.1-1.2-0.5-2.1-1.1-2.7s-1.4-0.8-2.2-0.8c-0.9,0.1-1.6,0.5-2.2,1.2s-0.8,1.6-0.7,2.8L356.8,101.4z"/>
	<path class="st16" d="M364.8,110l-1.7-21.7l4.1-0.3l0.6,7.8c1.2-1.6,2.6-2.4,4.4-2.6c1.9-0.2,3.5,0.4,4.9,1.7
		c1.4,1.3,2.1,3.2,2.4,5.8c0.2,2.7-0.3,4.8-1.4,6.3c-1.2,1.6-2.6,2.4-4.5,2.5c-0.9,0.1-1.8-0.1-2.7-0.5c-0.9-0.4-1.7-1-2.4-1.8
		l0.2,2.3L364.8,110z M368.3,101.5c0.1,1.6,0.5,2.8,1,3.5c0.8,1.1,1.8,1.5,3,1.4c0.9-0.1,1.7-0.5,2.3-1.4c0.6-0.8,0.8-2.1,0.7-3.8
		c-0.1-1.8-0.6-3.1-1.3-3.8c-0.7-0.7-1.6-1.1-2.6-1c-1,0.1-1.8,0.5-2.4,1.4C368.4,98.8,368.1,100,368.3,101.5z"/>
</g>
<g>
	<path class="st9" d="M266.7,343.5l0.3,1.8l-1.5,0.3l0.6,3.4c0.1,0.7,0.2,1.1,0.3,1.2s0.1,0.2,0.3,0.2s0.3,0.1,0.4,0
		c0.2,0,0.5-0.2,0.9-0.4l0.5,1.7c-0.5,0.3-1.1,0.5-1.7,0.6c-0.4,0.1-0.8,0.1-1.1,0c-0.4-0.1-0.6-0.2-0.8-0.4
		c-0.2-0.2-0.4-0.5-0.5-0.8c-0.1-0.3-0.2-0.8-0.4-1.5l-0.6-3.6l-1,0.2l-0.3-1.8l1-0.2l-0.3-1.7l2-1.7l0.5,3L266.7,343.5z"/>
	<path class="st9" d="M268.5,347.4c-0.1-0.7-0.1-1.5,0.2-2.2c0.3-0.8,0.7-1.4,1.3-1.9c0.6-0.5,1.3-0.8,2.2-1c1.3-0.2,2.4,0,3.4,0.7
		c1,0.7,1.6,1.6,1.8,2.9c0.2,1.3,0,2.4-0.7,3.4s-1.6,1.6-2.9,1.8c-0.8,0.1-1.5,0.1-2.3-0.1c-0.8-0.2-1.4-0.6-1.9-1.2
		C269,349.1,268.7,348.4,268.5,347.4z M270.8,347.1c0.1,0.8,0.5,1.4,0.9,1.8s1,0.5,1.6,0.4s1-0.4,1.4-0.9c0.3-0.5,0.4-1.2,0.3-2
		c-0.1-0.8-0.5-1.4-0.9-1.8c-0.5-0.4-1-0.5-1.6-0.4s-1,0.4-1.4,0.9C270.8,345.6,270.7,346.3,270.8,347.1z"/>
	<path class="st9" d="M285.4,348.8l-0.2-1.3c-0.2,0.5-0.6,0.9-1,1.3s-1,0.6-1.5,0.7c-0.6,0.1-1.1,0.1-1.6-0.1
		c-0.5-0.2-0.9-0.5-1.2-0.9c-0.3-0.4-0.5-1-0.6-1.8l-0.9-5.3l2.3-0.4l0.7,3.8c0.2,1.2,0.4,1.9,0.5,2.1s0.3,0.4,0.6,0.5
		s0.5,0.1,0.9,0.1c0.4-0.1,0.7-0.2,1-0.5c0.3-0.3,0.4-0.5,0.5-0.9c0.1-0.3,0-1.1-0.2-2.3l-0.6-3.5l2.3-0.4l1.5,8.4L285.4,348.8z"/>
	<path class="st9" d="M292.3,339l0.3,1.8L291,341l0.6,3.4c0.1,0.7,0.2,1.1,0.3,1.2s0.1,0.2,0.3,0.2s0.3,0.1,0.4,0
		c0.2,0,0.5-0.2,0.9-0.4l0.5,1.7c-0.5,0.3-1.1,0.5-1.7,0.6c-0.4,0.1-0.8,0.1-1.1,0c-0.4-0.1-0.6-0.2-0.8-0.4
		c-0.2-0.2-0.4-0.5-0.5-0.8c-0.1-0.3-0.2-0.8-0.4-1.5l-0.6-3.6l-1,0.2l-0.3-1.8l1-0.2l-0.3-1.7l2-1.7l0.5,3L292.3,339z"/>
	<path class="st9" d="M306.2,339l-2.1,0.8c-0.1-0.4-0.4-0.7-0.7-0.9s-0.7-0.2-1.1-0.1c-0.6,0.1-1,0.4-1.2,0.8s-0.3,1.1-0.2,2
		c0.2,1,0.5,1.7,0.9,2s0.9,0.5,1.5,0.4c0.4-0.1,0.8-0.3,1-0.5s0.4-0.7,0.4-1.3l2.3,0c0,1-0.4,1.9-0.9,2.5c-0.6,0.6-1.4,1-2.5,1.2
		c-1.2,0.2-2.3,0-3.2-0.6c-0.9-0.6-1.4-1.6-1.7-3c-0.3-1.4-0.1-2.5,0.5-3.4c0.6-0.9,1.5-1.5,2.8-1.7c1-0.2,1.9-0.1,2.6,0.2
		C305.3,337.6,305.8,338.2,306.2,339z"/>
	<path class="st9" d="M307.7,340.4c-0.1-0.7-0.1-1.5,0.2-2.2c0.3-0.8,0.7-1.4,1.3-1.9c0.6-0.5,1.3-0.8,2.2-1c1.3-0.2,2.4,0,3.4,0.7
		c1,0.7,1.6,1.6,1.8,2.9c0.2,1.3,0,2.4-0.7,3.4c-0.7,1-1.6,1.6-2.9,1.8c-0.8,0.1-1.5,0.1-2.3-0.1c-0.8-0.2-1.4-0.6-1.9-1.2
		C308.2,342.1,307.9,341.4,307.7,340.4z M310,340.1c0.1,0.8,0.5,1.4,0.9,1.8s1,0.5,1.6,0.4s1-0.4,1.4-0.9s0.4-1.2,0.3-2
		c-0.1-0.8-0.5-1.4-0.9-1.8c-0.5-0.4-1-0.5-1.6-0.4s-1,0.4-1.4,0.9S309.9,339.3,310,340.1z"/>
	<path class="st9" d="M317.4,334.5l2.1-0.4l0.2,1.1c0.6-1,1.4-1.6,2.4-1.8c0.5-0.1,1-0.1,1.5,0.1s0.8,0.4,1.2,0.8
		c0.3-0.5,0.6-0.9,1-1.2c0.4-0.3,0.8-0.5,1.3-0.6c0.6-0.1,1.2-0.1,1.6,0.1s0.9,0.5,1.2,0.9c0.2,0.3,0.4,0.9,0.5,1.7l1,5.3l-2.3,0.4
		l-0.9-4.8c-0.1-0.8-0.3-1.4-0.5-1.6c-0.3-0.3-0.6-0.4-1-0.3c-0.3,0.1-0.6,0.2-0.8,0.4c-0.2,0.2-0.4,0.5-0.5,0.9s0,1,0.1,1.8l0.7,4
		l-2.3,0.4l-0.8-4.6c-0.1-0.8-0.3-1.3-0.4-1.5s-0.3-0.4-0.5-0.5c-0.2-0.1-0.4-0.1-0.7,0c-0.4,0.1-0.6,0.2-0.9,0.4s-0.4,0.5-0.5,0.9
		s0,1,0.1,1.8l0.7,4.1l-2.3,0.4L317.4,334.5z"/>
	<path class="st9" d="M332.1,331.9l2.1-0.4l0.2,1.2c0.2-0.5,0.5-0.9,0.9-1.2c0.4-0.4,0.9-0.6,1.5-0.7c1-0.2,1.9,0,2.7,0.7
		s1.4,1.6,1.6,3c0.3,1.4,0.1,2.5-0.5,3.4s-1.3,1.4-2.3,1.6c-0.5,0.1-0.9,0.1-1.3,0c-0.4-0.1-0.9-0.4-1.4-0.7l0.8,4.2l-2.3,0.4
		L332.1,331.9z M335,335.5c0.2,0.9,0.5,1.6,0.9,2s1,0.5,1.5,0.4c0.5-0.1,0.9-0.4,1.2-0.9c0.3-0.5,0.3-1.2,0.2-2.1
		c-0.2-0.9-0.5-1.5-0.9-1.9c-0.4-0.4-0.9-0.5-1.4-0.4c-0.5,0.1-1,0.4-1.3,0.9C334.9,334,334.9,334.7,335,335.5z"/>
	<path class="st9" d="M345.8,338l-2.3,0.4l-1.5-8.4l2.1-0.4l0.2,1.2c0.3-0.6,0.5-1,0.8-1.3s0.6-0.4,0.9-0.4c0.5-0.1,1,0,1.6,0.1
		l-0.4,2c-0.4-0.2-0.8-0.2-1.1-0.2s-0.6,0.2-0.8,0.4s-0.3,0.5-0.4,1c0,0.5,0.1,1.4,0.3,2.8L345.8,338z"/>
	<path class="st9" d="M348.3,327.8l-0.4-2l2.3-0.4l0.4,2L348.3,327.8z M350,337.3l-1.5-8.4l2.3-0.4l1.5,8.4L350,337.3z"/>
	<path class="st9" d="M353.4,334.2l2.2-0.7c0.2,0.4,0.4,0.7,0.8,0.9c0.3,0.2,0.8,0.2,1.3,0.1c0.6-0.1,1-0.3,1.3-0.5
		c0.2-0.2,0.2-0.4,0.2-0.6c0-0.2-0.1-0.3-0.2-0.4c-0.1-0.1-0.4-0.1-0.8-0.2c-1.9-0.1-3.1-0.2-3.6-0.5c-0.8-0.3-1.2-0.9-1.4-1.7
		c-0.1-0.7,0-1.4,0.5-2s1.4-1,2.6-1.2c1.2-0.2,2.1-0.2,2.7,0.1c0.6,0.3,1.1,0.8,1.5,1.4l-2,0.8c-0.1-0.3-0.4-0.5-0.6-0.7
		s-0.7-0.1-1.1-0.1c-0.6,0.1-1,0.3-1.2,0.5c-0.1,0.1-0.2,0.3-0.2,0.5c0,0.2,0.1,0.3,0.3,0.4c0.2,0.1,1,0.2,2.2,0.3s2.1,0.2,2.7,0.5
		c0.5,0.3,0.9,0.8,1,1.5c0.1,0.8-0.1,1.5-0.6,2.1c-0.5,0.7-1.5,1.1-2.8,1.3c-1.2,0.2-2.1,0.1-2.9-0.2
		C354.3,335.5,353.7,335,353.4,334.2z"/>
</g>
<g>
	<path class="st16" d="M254.3,229l-2.1-19.4l6.3-0.7c2.4-0.3,4-0.3,4.7-0.2c1.1,0.2,2.1,0.7,3,1.6c0.9,0.9,1.4,2.1,1.5,3.7
		c0.1,1.2,0,2.2-0.3,3.1s-0.8,1.6-1.4,2.1c-0.6,0.5-1.3,0.9-1.9,1.1c-0.9,0.3-2.3,0.5-4,0.7l-2.6,0.3l0.8,7.3L254.3,229z
		 M256.4,212.4l0.6,5.5l2.1-0.2c1.5-0.2,2.6-0.4,3.1-0.6s0.9-0.6,1.1-1.1c0.3-0.5,0.3-1,0.3-1.6c-0.1-0.7-0.4-1.3-0.8-1.7
		c-0.5-0.4-1-0.6-1.7-0.7c-0.5,0-1.4,0-2.8,0.2L256.4,212.4z"/>
	<path class="st16" d="M272.4,227l-2.1-19.4l8.3-0.9c2.1-0.2,3.6-0.2,4.6,0c1,0.3,1.8,0.8,2.5,1.6s1.1,1.8,1.2,3
		c0.2,1.5-0.1,2.7-0.9,3.8s-2,1.8-3.6,2.2c0.9,0.4,1.7,0.9,2.3,1.4s1.5,1.5,2.6,2.9l2.8,3.5l-4.7,0.5l-3.3-3.9
		c-1.2-1.4-2-2.3-2.4-2.6s-0.8-0.6-1.3-0.7c-0.4-0.1-1.1-0.1-2,0l-0.8,0.1l0.9,8.1L272.4,227z M275.1,215.4l2.9-0.3
		c1.9-0.2,3-0.4,3.5-0.6c0.5-0.2,0.8-0.5,1-0.9s0.3-0.9,0.2-1.5c-0.1-0.6-0.3-1.2-0.7-1.5c-0.4-0.4-0.9-0.6-1.6-0.6
		c-0.3,0-1.3,0.1-2.9,0.3l-3.1,0.3L275.1,215.4z"/>
	<path class="st16" d="M292,224.9l-2.1-19.4l14.4-1.6l0.4,3.3l-10.5,1.1l0.5,4.3l9.8-1.1l0.4,3.3l-9.8,1.1l0.6,5.3l10.9-1.2l0.4,3.3
		L292,224.9z"/>
	<path class="st16" d="M310,222.9l-2.1-19.4l5.9-0.6l5,12.9l2-13.6l5.9-0.6l2.1,19.4l-3.6,0.4l-1.7-15.3l-2.2,15.7l-3.8,0.4
		l-5.5-14.9l1.7,15.3L310,222.9z"/>
	<path class="st16" d="M332.5,220.4l-2.1-19.4l3.9-0.4l2.1,19.4L332.5,220.4z"/>
	<path class="st16" d="M338,200.2l3.9-0.4l1.1,10.5c0.2,1.7,0.4,2.8,0.5,3.2c0.3,0.8,0.7,1.4,1.4,1.8c0.7,0.4,1.6,0.6,2.7,0.4
		c1.1-0.1,1.9-0.4,2.4-1c0.5-0.5,0.8-1.1,0.8-1.8c0-0.7,0-1.8-0.2-3.3l-1.2-10.7l3.9-0.4l1.1,10.2c0.3,2.3,0.3,4,0.2,5
		c-0.1,1-0.4,1.8-0.9,2.6c-0.5,0.7-1.2,1.3-2.1,1.8c-0.9,0.5-2.1,0.8-3.7,1c-1.9,0.2-3.3,0.1-4.3-0.2c-1-0.3-1.8-0.8-2.5-1.4
		s-1.1-1.3-1.3-2c-0.4-1.1-0.7-2.7-0.9-4.9L338,200.2z"/>
	<path class="st16" d="M359.7,217.4l-2.1-19.4l5.9-0.6l5,12.9l2-13.6l5.9-0.6l2.1,19.4l-3.6,0.4l-1.7-15.3l-2.2,15.7l-3.8,0.4
		l-5.5-14.9l1.7,15.3L359.7,217.4z"/>
</g>
<g>
	<path class="st9" d="M236.7,309.3l-0.8-4.8l17.7-2.9l0.6,3.8c-1.2,1.7-2.4,4-3.4,6.9c-1.1,2.9-1.8,6-2,9.1s-0.2,5.9,0.2,8.3l-5,0.8
		c-0.5-3.7-0.4-7.7,0.4-11.8c0.8-4.1,2.2-7.9,4.1-11.3L236.7,309.3z"/>
	<path class="st9" d="M260.2,320.7l5.1-1.4c0.3,1.1,0.9,2,1.8,2.6c0.8,0.6,1.7,0.8,2.7,0.6c1.1-0.2,1.9-0.8,2.5-1.8s0.8-2.4,0.5-4.1
		c-0.3-1.7-0.8-2.8-1.7-3.5c-0.9-0.7-1.9-1-3.1-0.8c-1.5,0.2-2.7,1.1-3.7,2.6l-4.3,0.1l0.4-14.5l13.7-2.2l0.8,4.8l-9.8,1.6l-0.1,4.7
		c1.1-0.8,2.2-1.2,3.4-1.4c2.3-0.4,4.4,0.1,6.2,1.5c1.9,1.4,3,3.4,3.5,6.1c0.4,2.2,0,4.3-1,6.3c-1.4,2.7-3.6,4.3-6.7,4.8
		c-2.5,0.4-4.6,0.1-6.4-1C262.1,324.5,260.9,322.9,260.2,320.7z"/>
	<path class="st9" d="M297,294c2.6-0.4,4.8,0.2,6.6,1.8c2.1,1.9,3.6,5.4,4.4,10.6c0.8,5.1,0.6,8.9-0.9,11.4c-1.2,2.1-3,3.3-5.7,3.8
		c-2.6,0.4-4.9-0.2-6.8-2c-1.9-1.8-3.3-5.2-4.2-10.4c-0.8-5.1-0.5-8.9,0.9-11.4C292.5,295.7,294.4,294.4,297,294z M297.7,298.3
		c-0.6,0.1-1.2,0.4-1.6,0.9c-0.4,0.5-0.7,1.3-0.8,2.3c-0.1,1.4,0.1,3.7,0.6,6.8s1,5.3,1.5,6.4c0.5,1.1,1,1.9,1.6,2.2
		c0.5,0.3,1.1,0.4,1.8,0.3c0.6-0.1,1.2-0.4,1.6-0.9c0.4-0.5,0.7-1.3,0.8-2.3c0.1-1.4,0-3.7-0.6-6.8c-0.5-3.2-1-5.3-1.5-6.4
		c-0.5-1.1-1-1.9-1.6-2.2C298.9,298.3,298.3,298.2,297.7,298.3z"/>
	<path class="st9" d="M317.9,290.6c2.6-0.4,4.8,0.2,6.6,1.8c2.1,1.9,3.6,5.4,4.4,10.6c0.8,5.1,0.6,8.9-0.9,11.4
		c-1.2,2.1-3,3.3-5.7,3.8c-2.6,0.4-4.9-0.2-6.8-2c-1.9-1.8-3.3-5.2-4.2-10.4c-0.8-5.1-0.5-8.9,0.9-11.4
		C313.4,292.2,315.3,291,317.9,290.6z M318.6,294.8c-0.6,0.1-1.2,0.4-1.6,0.9c-0.4,0.5-0.7,1.3-0.8,2.3c-0.1,1.4,0.1,3.7,0.6,6.8
		c0.5,3.2,1,5.3,1.5,6.4c0.5,1.1,1,1.9,1.6,2.2c0.5,0.3,1.1,0.4,1.8,0.3s1.2-0.4,1.6-0.9c0.4-0.5,0.7-1.3,0.8-2.3
		c0.1-1.4,0-3.7-0.6-6.8s-1-5.3-1.5-6.4c-0.5-1.1-1-1.9-1.6-2.2C319.9,294.8,319.3,294.7,318.6,294.8z"/>
	<path class="st9" d="M338.9,287.1c2.6-0.4,4.8,0.2,6.6,1.8c2.1,1.9,3.6,5.4,4.4,10.6c0.8,5.1,0.6,8.9-0.9,11.4
		c-1.2,2.1-3,3.3-5.7,3.8c-2.6,0.4-4.9-0.2-6.8-2c-1.9-1.8-3.3-5.2-4.2-10.4c-0.8-5.1-0.5-8.9,0.9-11.4
		C334.4,288.8,336.3,287.6,338.9,287.1z M339.6,291.4c-0.6,0.1-1.2,0.4-1.6,0.9c-0.4,0.5-0.7,1.3-0.8,2.3c-0.1,1.4,0.1,3.7,0.6,6.8
		c0.5,3.2,1,5.3,1.5,6.4c0.5,1.1,1,1.9,1.6,2.2c0.5,0.3,1.1,0.4,1.8,0.3c0.6-0.1,1.2-0.4,1.6-0.9c0.4-0.5,0.7-1.3,0.8-2.3
		c0.1-1.4,0-3.7-0.6-6.8c-0.5-3.2-1-5.3-1.5-6.4c-0.5-1.1-1-1.9-1.6-2.2S340.2,291.3,339.6,291.4z"/>
</g>
</svg>
