<?xml version="1.0" encoding="utf-8"?>
<!-- Generator: Adobe Illustrator 23.0.1, SVG Export Plug-In . SVG Version: 6.00 Build 0)  -->
<svg version="1.1" id="Calque_1" xmlns="http://www.w3.org/2000/svg" xmlns:xlink="http://www.w3.org/1999/xlink" x="0px" y="0px"
	 viewBox="0 0 400 80" style="enable-background:new 0 0 400 80;" xml:space="preserve">
<style type="text/css">
	.st0{fill:#FFFFFF;}
	.st1{fill:#B1C700;}
	.st2{fill:none;}
</style>
<rect width="400" height="80"/>
<g>
	<g>
		<path class="st0" d="M12,50.4V7.8h8.4l17.4,28.5V7.8h8v42.6h-8.6L20,22.6v27.8H12z"/>
	</g>
	<g>
		<path class="st0" d="M98.7,50.4l14.6-22.2L100.1,7.8h10.1l8.6,13.7l8.4-13.7h10l-13.3,20.7l14.6,21.9H128l-9.4-14.7L109,50.4H98.7
			z"/>
		<path class="st0" d="M152.4,50.4V15h-12.6V7.8h33.9V15H161v35.4H152.4z"/>
	</g>
	<rect x="73" y="7.3" class="st1" width="22.3" height="9.3"/>
	<rect x="61.8" y="24" class="st1" width="33.5" height="9.3"/>
	<rect x="50.6" y="40.8" class="st1" width="44.7" height="9.3"/>
</g>
<g>
	<path class="st1" d="M114.7,74.8c0.7-0.2,1.2-0.4,1.5-0.5c5.9-1.8,10.1-2.7,12.7-2.7c1.9,0,2.9,0.7,2.9,2.2c0,0.6-0.2,1.1-0.6,1.5
		s-0.9,0.7-1.5,0.7c-0.3,0-0.6,0-1.1-0.1c-0.4-0.1-0.7-0.1-1-0.1c-1.5,0-3.5,0.3-5.9,1c-0.9,0.3-2.6,1-5.2,2.2
		c-1.7,0.8-3.1,1.2-4.2,1.2c-0.8,0-1.4-0.4-1.9-1.1c-0.5-0.7-0.7-1.4-0.7-2.2c0-0.9,0.5-2.5,1.6-4.8c3.2-7,6.6-13.2,10.3-18.7
		c5.2-7.9,9.3-13.7,12.2-17.4c0.8-1,1.6-2,2.4-3c1.3-1.7,2.3-2.5,3.3-2.5c0.5,0,0.9,0.2,1.2,0.5c0.3,0.4,0.5,0.7,0.5,1.1
		c0,0.6-0.4,1.4-1.3,2.6c-0.2,0.2-1.2,1.6-3.2,4.2c-3.6,4.8-6.3,8.4-8.1,11c-1.8,2.5-3.7,5.5-5.7,8.8
		C118.7,64.9,116.1,70.3,114.7,74.8z"/>
	<path class="st1" d="M137.5,70.6v0.7c0,0.6,0.1,1.1,0.4,1.5c0.6,0.9,1.7,1.4,3.1,1.4c3.2,0,6.9-2.5,11.1-7.4
		c0.7-0.8,1.4-1.3,1.9-1.3c0.3,0,0.5,0.1,0.8,0.4c0.1,0.2,0.2,0.4,0.2,0.6c0,1-1.2,2.7-3.7,5.1c-1.9,1.9-4,3.4-6.1,4.6
		c-2.2,1.2-4.2,1.8-6,1.8c-1.9,0-3.4-0.7-4.5-2c-0.7-0.9-1.1-2.2-1.1-3.8c0-4.3,2-8.5,6.1-12.7c3.3-3.4,6.2-5.1,8.6-5.1
		c0.7,0,1.3,0.2,1.8,0.6c0.7,0.5,1,1.2,1,2.1c0,1.4-0.6,3-1.9,5C146.6,66.3,142.7,69.1,137.5,70.6z M138.4,67.6
		c1.8-0.6,3.2-1.3,4.2-2.1c1.8-1.4,3.2-2.9,4.3-4.7c0.4-0.6,0.6-1.2,0.6-1.6c0-0.5-0.2-0.8-0.7-0.8c-0.7,0-1.6,0.5-2.8,1.5
		C141.7,61.7,139.8,64.3,138.4,67.6z"/>
	<path class="st1" d="M170.2,67.5c-1.6,2.7-2.9,4.7-4,6c-2.7,3.2-5,4.8-6.8,4.8c-1.1,0-1.9-0.6-2.5-1.8c-0.4-0.8-0.6-1.6-0.6-2.5
		c0-1.7,0.7-4.1,2.2-7.3c1.3-2.8,2.4-5,3.3-6.6c0.7-1.2,1.1-1.9,1.2-2.3c0.3-0.7,0.6-1.2,0.8-1.6c0.3-0.5,0.8-0.8,1.4-0.8
		c0.3,0,0.6,0.1,0.8,0.4c0.3,0.3,0.4,0.7,0.4,1.1c0,1.2-1,3.7-3.1,7.7c-2.1,3.9-3.1,6.5-3.1,7.8c0,0.8,0.3,1.2,1,1.2
		c1.1,0,2.7-1.4,4.7-4.3c0.9-1.3,1.8-2.9,2.8-4.9c0-0.6,0-1.1,0-1.5c0-1.9,0.4-3.6,1.1-5c0.9-1.8,2.2-2.7,3.7-2.7
		c0.9,0,1.3,0.5,1.3,1.6c0,1.7-0.9,4.2-2.7,7.5c0.5,0.1,0.9,0.2,1.2,0.2c0.8,0,1.9-0.5,3.3-1.6c1.1-0.9,1.8-1.3,2.1-1.3
		c0.3,0,0.6,0.2,0.9,0.5c0.2,0.3,0.3,0.6,0.3,0.8c0,0.9-0.6,2-1.9,3.1c-1.5,1.3-3.2,2-5.1,2C172.1,68.2,171.2,68,170.2,67.5z"/>
	<path class="st1" d="M180.8,70.6v0.7c0,0.6,0.1,1.1,0.4,1.5c0.6,0.9,1.7,1.4,3.1,1.4c3.2,0,6.9-2.5,11.1-7.4
		c0.7-0.8,1.4-1.3,1.9-1.3c0.3,0,0.5,0.1,0.8,0.4c0.1,0.2,0.2,0.4,0.2,0.6c0,1-1.2,2.7-3.7,5.1c-1.9,1.9-4,3.4-6.1,4.6
		c-2.2,1.2-4.2,1.8-6.1,1.8c-1.9,0-3.4-0.7-4.5-2c-0.7-0.9-1.1-2.2-1.1-3.8c0-4.3,2-8.5,6.1-12.7c3.3-3.4,6.2-5.1,8.6-5.1
		c0.7,0,1.3,0.2,1.8,0.6c0.7,0.5,1,1.2,1,2.1c0,1.4-0.6,3-1.9,5C189.9,66.3,186,69.1,180.8,70.6z M181.7,67.6
		c1.8-0.6,3.2-1.3,4.2-2.1c1.8-1.4,3.2-2.9,4.3-4.7c0.4-0.6,0.6-1.2,0.6-1.6c0-0.5-0.2-0.8-0.7-0.8c-0.7,0-1.6,0.5-2.8,1.5
		C184.9,61.7,183.1,64.3,181.7,67.6z"/>
	<path class="st1" d="M205.6,65.3c-0.8,2-1.3,3.6-1.7,4.8c-0.4,1.2-0.6,2.1-0.6,2.6c0,0.6,0.3,1,0.9,1c0.9,0,2.1-0.9,3.6-2.6
		c0.7-0.8,1.7-2.4,3.1-4.6c0.5-0.9,1.1-1.3,1.7-1.3c0.7,0,1,0.3,1,1c0,1.1-1.3,3.3-3.8,6.7c-2.6,3.5-5.1,5.3-7.3,5.3
		c-1,0-1.8-0.4-2.4-1.2c-0.4-0.6-0.6-1.3-0.6-2.2c0-1.4,0.4-3.4,1.3-5.9s2.2-5.6,3.9-9.2c4.4-9.2,8.9-16.8,13.5-22.8
		c3.6-4.8,6.7-7.2,9.1-7.2c0.8,0,1.4,0.3,1.9,0.9c0.5,0.6,0.8,1.3,0.8,2c0,3.6-3.2,9.5-9.6,17.9c-2.9,3.7-6.3,7.4-10.3,11.1
		C208.9,62.3,207.5,63.6,205.6,65.3z M208.4,59.2c5.3-4.5,10.1-10.3,14.3-17.2c2.2-3.6,3.3-6,3.3-7.2c0-0.6-0.2-0.8-0.7-0.8
		c-1.4,0-4,2.8-7.7,8.4C214.4,46.9,211.4,52.5,208.4,59.2z"/>
</g>
<rect x="9.4" y="68" class="st2" width="345.7" height="37.7"/>
</svg>
