<?xml version="1.0" encoding="utf-8"?>
<!-- Generator: Adobe Illustrator 22.0.0, SVG Export Plug-In . SVG Version: 6.00 Build 0)  -->
<svg version="1.1" id="Calque_1" xmlns="http://www.w3.org/2000/svg" xmlns:xlink="http://www.w3.org/1999/xlink" x="0px" y="0px"
	 viewBox="0 0 362.5 67.4" style="enable-background:new 0 0 362.5 67.4;" xml:space="preserve">
<style type="text/css">
	.st0{fill:#FFFFFF;}
	.st1{fill:none;stroke:#FFFFFF;stroke-width:3;stroke-miterlimit:10;}
</style>
<g>
	<g>
		<path class="st0" d="M95.7,44c-2.3,1.2-5.7,1.8-10.1,1.8c-5.2,0-9.3-1.4-12.5-4.1c-3.2-2.8-4.8-6.3-4.8-10.7c0-5,1.7-9,5.1-11.9
			c3.4-2.9,8-4.4,13.7-4.4c4,0,6.8,0.5,8.6,1.4v7.8c-2.2-1.4-4.6-2.1-7.2-2.1c-3,0-5.3,0.8-7.1,2.3c-1.7,1.5-2.6,3.7-2.6,6.4
			c0,2.6,0.8,4.7,2.5,6.2c1.7,1.5,3.9,2.3,6.8,2.3c2.6,0,5.1-0.7,7.6-2.1L95.7,44L95.7,44L95.7,44z"/>
		<path class="st0" d="M166.6,32.8h-21.9c0.4,4.3,3.4,6.5,9.2,6.5c3.7,0,6.9-0.8,9.7-2.3v6.6c-3.1,1.5-7.1,2.2-12.1,2.2
			c-5.4,0-9.6-1.3-12.6-4c-3-2.7-4.5-6.4-4.5-11.1c0-4.9,1.6-8.8,4.8-11.7c3.2-2.9,7.2-4.3,11.9-4.3c4.9,0,8.7,1.3,11.4,3.9
			c2.7,2.6,4,6.1,4,10.5L166.6,32.8L166.6,32.8z M157,27.2c0-4.3-1.9-6.4-5.8-6.4c-1.7,0-3.1,0.6-4.3,1.8c-1.2,1.2-1.9,2.7-2.2,4.6
			L157,27.2L157,27.2z"/>
		<path class="st0" d="M202.1,45h-9.8v-4.3h-0.1c-2.3,3.3-5.6,5-10,5c-3.3,0-5.8-0.8-7.7-2.5c-1.9-1.6-2.8-3.8-2.8-6.5
			c0-5.8,3.9-9.1,11.6-10l9.1-1.1c0-3.3-2-4.9-6-4.9c-4,0-7.8,1.1-11.4,3.2v-6.9c1.4-0.7,3.4-1.2,5.9-1.7c2.5-0.5,4.8-0.8,6.8-0.8
			c9.6,0,14.3,4.2,14.3,12.7L202.1,45L202.1,45z M192.4,33v-2l-6.1,0.7c-3.4,0.4-5,1.7-5,4c0,1,0.4,1.9,1.2,2.6c0.8,0.7,1.9,1,3.3,1
			c1.9,0,3.5-0.6,4.8-1.8C191.8,36.3,192.4,34.8,192.4,33z"/>
		<path class="st0" d="M230.2,44.7c-1.5,0.7-3.8,1.1-6.9,1.1c-7.3,0-10.9-3.4-10.9-10.1V22.1h-5.4v-6.8h5.4V8.9l10.3-2.6v9h7.5v6.8
			h-7.5v12c0,3.1,1.4,4.6,4.2,4.6c1.1,0,2.2-0.3,3.4-0.8L230.2,44.7L230.2,44.7z"/>
		<path class="st0" d="M250.8,45h-10.3V15.3h10.3V45z"/>
		<path class="st0" d="M294.2,15.3L281.7,45h-11.8l-11.9-29.7h11.1l5.8,18.3c0.7,2.1,1,3.8,1.1,5.3h0.1c0.2-1.4,0.6-3.1,1.2-5.1
			l6-18.5L294.2,15.3L294.2,15.3z"/>
	</g>
	<path class="st1" d="M130.7,11.6"/>
	<g>
		<g>
			<path class="st0" d="M124.4,55.8c1,0,1.6-0.4,1.6-1c0-0.6-0.5-1-1.4-1c-0.4,0-0.7,0-0.8,0.1v2h0H124.4z"/>
			<path class="st0" d="M100,1.2v63.7h31.1V1.2H100z M104.4,16.8h11.2v5.1c1.8-2.7,4.7-5,8.4-5c1.1,0,1.2,0,2.8,0.2v8.4
				c-1.6-0.6-3-0.9-4.6-0.9c-2.3,0-3.7,0.7-5,2.2c-1.3,1.5-1.6,3.4-1.6,6v13.8h-11.2V16.8z M111.8,60.9h-2.1l-0.7-3.6
				c-0.2-0.8-0.3-1.6-0.4-2.6h0c-0.2,0.9-0.3,1.7-0.5,2.6l-0.8,3.6h-2.1l-2-8.4h2.1l0.7,3.5c0.2,1,0.4,2.1,0.5,2.9h0
				c0.1-0.9,0.3-1.9,0.6-3l0.7-3.4h2.1l0.7,3.5c0.2,1,0.3,1.9,0.5,2.8h0c0.1-0.9,0.3-1.9,0.5-2.9l0.7-3.4h2L111.8,60.9z M120.5,60.9
				H115v-8.4h5.3v1.6H117v1.8h3.2v1.5H117v2h3.5V60.9z M127.4,60.3c-0.6,0.5-1.7,0.8-3.4,0.8c-1,0-1.7-0.1-2.1-0.1v-8.3
				c0.5-0.1,1.5-0.2,2.5-0.2c1.2,0,1.9,0.1,2.5,0.5c0.6,0.3,1,0.9,1,1.6c0,0.7-0.4,1.5-1.4,1.8v0c1,0.3,1.7,1,1.7,2.1
				C128.2,59.2,127.9,59.8,127.4,60.3z"/>
			<path class="st0" d="M124.4,57.2h-0.7v2.4c0.2,0,0.4,0,0.8,0c0.9,0,1.7-0.3,1.7-1.2C126.2,57.5,125.4,57.2,124.4,57.2z"/>
		</g>
	</g>
</g>
<g>
	<path class="st0" d="M138.1,51.7c0.9-0.1,2-0.2,3.3-0.2c2.2,0,3.8,0.5,4.8,1.4c1.1,0.9,1.7,2.3,1.7,4.2c0,1.9-0.6,3.4-1.7,4.5
		c-1.1,1.1-2.9,1.7-5.2,1.7c-1.1,0-2-0.1-2.8-0.1V51.7z M139.7,61.9c0.4,0.1,0.9,0.1,1.5,0.1c3.3,0,5-1.8,5-4.9
		c0-2.7-1.6-4.5-4.8-4.5c-0.8,0-1.4,0.1-1.8,0.2V61.9z"/>
	<path class="st0" d="M150.7,59.2c0,2,1.4,2.9,2.9,2.9c1.1,0,1.8-0.2,2.4-0.4l0.3,1.1c-0.5,0.2-1.5,0.5-2.8,0.5
		c-2.6,0-4.2-1.7-4.2-4.2s1.5-4.5,4-4.5c2.8,0,3.5,2.4,3.5,3.9c0,0.3,0,0.6-0.1,0.7H150.7z M155.3,58.2c0-1-0.4-2.5-2.1-2.5
		c-1.6,0-2.3,1.4-2.4,2.5H155.3z M155.6,51.2l-2.1,2.5h-1.1l1.5-2.5H155.6z"/>
	<path class="st0" d="M159.3,54.8l1.7,4.7c0.3,0.8,0.5,1.4,0.7,2.1h0.1c0.2-0.7,0.4-1.4,0.7-2.1l1.7-4.7h1.6l-3.3,8.3h-1.5l-3.2-8.3
		H159.3z"/>
	<path class="st0" d="M167.8,59.2c0,2,1.4,2.9,2.9,2.9c1.1,0,1.8-0.2,2.4-0.4l0.3,1.1c-0.5,0.2-1.5,0.5-2.8,0.5
		c-2.6,0-4.2-1.7-4.2-4.2s1.5-4.5,4-4.5c2.8,0,3.5,2.4,3.5,3.9c0,0.3,0,0.6-0.1,0.7H167.8z M172.4,58.2c0-1-0.4-2.5-2.1-2.5
		c-1.6,0-2.3,1.4-2.4,2.5H172.4z"/>
	<path class="st0" d="M175.8,50.9h1.5v12.2h-1.5V50.9z"/>
	<path class="st0" d="M187.6,58.9c0,3.1-2.2,4.4-4.2,4.4c-2.3,0-4.1-1.6-4.1-4.3c0-2.8,1.9-4.4,4.2-4.4
		C186,54.6,187.6,56.4,187.6,58.9z M180.9,59c0,1.8,1.1,3.2,2.6,3.2c1.5,0,2.6-1.4,2.6-3.2c0-1.4-0.7-3.2-2.6-3.2
		C181.7,55.8,180.9,57.4,180.9,59z"/>
	<path class="st0" d="M189.6,57.5c0-1.1,0-1.9-0.1-2.7h1.4l0.1,1.4h0c0.6-1,1.6-1.6,3-1.6c2.1,0,3.6,1.7,3.6,4.2
		c0,3-1.9,4.5-3.9,4.5c-1.1,0-2.1-0.5-2.6-1.3h0v4.5h-1.5V57.5z M191.1,59.7c0,0.2,0,0.4,0.1,0.6c0.3,1,1.2,1.8,2.3,1.8
		c1.6,0,2.6-1.3,2.6-3.2c0-1.7-0.9-3.1-2.5-3.1c-1.1,0-2,0.7-2.3,1.9c-0.1,0.2-0.1,0.4-0.1,0.6V59.7z"/>
	<path class="st0" d="M199.6,57.5c0-1.1,0-1.9-0.1-2.7h1.4l0.1,1.4h0c0.6-1,1.6-1.6,3-1.6c2.1,0,3.6,1.7,3.6,4.2
		c0,3-1.9,4.5-3.9,4.5c-1.1,0-2.1-0.5-2.6-1.3h0v4.5h-1.5V57.5z M201.1,59.7c0,0.2,0,0.4,0.1,0.6c0.3,1,1.2,1.8,2.3,1.8
		c1.6,0,2.6-1.3,2.6-3.2c0-1.7-0.9-3.1-2.5-3.1c-1.1,0-2,0.7-2.3,1.9c-0.1,0.2-0.1,0.4-0.1,0.6V59.7z"/>
	<path class="st0" d="M210.5,59.2c0,2,1.4,2.9,2.9,2.9c1.1,0,1.8-0.2,2.4-0.4l0.3,1.1c-0.5,0.2-1.5,0.5-2.8,0.5
		c-2.6,0-4.2-1.7-4.2-4.2s1.5-4.5,4-4.5c2.8,0,3.5,2.4,3.5,3.9c0,0.3,0,0.6-0.1,0.7H210.5z M215,58.2c0-1-0.4-2.5-2.1-2.5
		c-1.6,0-2.3,1.4-2.4,2.5H215z"/>
	<path class="st0" d="M218.4,57.1c0-0.9,0-1.6-0.1-2.3h1.4l0.1,1.3h0.1c0.5-0.8,1.3-1.5,2.7-1.5c1.2,0,2,0.7,2.4,1.7h0
		c0.3-0.5,0.6-0.8,1-1.1c0.5-0.4,1.1-0.6,1.9-0.6c1.1,0,2.8,0.7,2.8,3.6v4.9h-1.5v-4.7c0-1.6-0.6-2.6-1.8-2.6
		c-0.9,0-1.6,0.6-1.8,1.4c-0.1,0.2-0.1,0.5-0.1,0.8v5.1h-1.5v-5c0-1.3-0.6-2.3-1.8-2.3c-1,0-1.7,0.8-1.9,1.5
		c-0.1,0.2-0.1,0.5-0.1,0.7v5h-1.5V57.1z"/>
	<path class="st0" d="M234,59.2c0,2,1.4,2.9,2.9,2.9c1.1,0,1.8-0.2,2.4-0.4l0.3,1.1c-0.5,0.2-1.5,0.5-2.8,0.5
		c-2.6,0-4.2-1.7-4.2-4.2s1.5-4.5,4-4.5c2.8,0,3.5,2.4,3.5,3.9c0,0.3,0,0.6-0.1,0.7H234z M238.5,58.2c0-1-0.4-2.5-2.1-2.5
		c-1.6,0-2.3,1.4-2.4,2.5H238.5z"/>
	<path class="st0" d="M241.9,57.1c0-0.9,0-1.6-0.1-2.3h1.4l0.1,1.4h0c0.4-0.8,1.4-1.6,2.8-1.6c1.2,0,3,0.7,3,3.5v5h-1.5v-4.8
		c0-1.3-0.5-2.5-2-2.5c-1,0-1.8,0.7-2.1,1.5c-0.1,0.2-0.1,0.4-0.1,0.7v5h-1.5V57.1z"/>
	<path class="st0" d="M253.5,52.4v2.4h2.2V56h-2.2v4.5c0,1,0.3,1.6,1.2,1.6c0.4,0,0.7-0.1,0.9-0.1l0.1,1.1c-0.3,0.1-0.8,0.2-1.4,0.2
		c-0.7,0-1.3-0.2-1.7-0.6c-0.4-0.4-0.6-1.2-0.6-2.2V56h-1.3v-1.2h1.3v-2L253.5,52.4z"/>
	<path class="st0" d="M261.8,54.8l1.1,4.2c0.2,0.9,0.5,1.8,0.6,2.6h0.1c0.2-0.8,0.5-1.7,0.8-2.6l1.4-4.2h1.3l1.3,4.2
		c0.3,1,0.6,1.9,0.8,2.7h0.1c0.1-0.8,0.4-1.7,0.7-2.7l1.2-4.2h1.5l-2.7,8.3h-1.4l-1.3-4c-0.3-0.9-0.5-1.8-0.8-2.7h0
		c-0.2,1-0.5,1.9-0.8,2.7l-1.4,4h-1.4l-2.6-8.3H261.8z"/>
	<path class="st0" d="M274.8,59.2c0,2,1.4,2.9,2.9,2.9c1.1,0,1.8-0.2,2.4-0.4l0.3,1.1c-0.5,0.2-1.5,0.5-2.8,0.5
		c-2.6,0-4.2-1.7-4.2-4.2s1.5-4.5,4-4.5c2.8,0,3.5,2.4,3.5,3.9c0,0.3,0,0.6-0.1,0.7H274.8z M279.3,58.2c0-1-0.4-2.5-2.1-2.5
		c-1.6,0-2.3,1.4-2.4,2.5H279.3z"/>
	<path class="st0" d="M282.7,63.1c0-0.6,0.1-1.4,0.1-2.1V50.9h1.5v5.2h0c0.5-0.9,1.5-1.5,2.9-1.5c2.1,0,3.6,1.7,3.6,4.2
		c0,3-1.9,4.5-3.8,4.5c-1.2,0-2.2-0.5-2.8-1.6h-0.1l-0.1,1.4H282.7z M284.3,59.8c0,0.2,0,0.4,0.1,0.5c0.3,1,1.2,1.8,2.3,1.8
		c1.6,0,2.6-1.3,2.6-3.2c0-1.7-0.9-3.1-2.5-3.1c-1.1,0-2,0.7-2.4,1.9c0,0.2-0.1,0.4-0.1,0.6V59.8z"/>
</g>
<ellipse class="st0" cx="245.6" cy="6.4" rx="5.6" ry="5.5"/>
</svg>
