<svg xmlns="http://www.w3.org/2000/svg" viewBox="0 0 564.59 94.18"><defs><style>.b533d5b0-9349-4c14-825c-0721f7c6d370{fill:#bccf00;}.\38 4a402e0-77bd-4fb1-918e-2bb1d8f58650,.b533d5b0-9349-4c14-825c-0721f7c6d370{fill-rule:evenodd;}.\38 4a402e0-77bd-4fb1-918e-2bb1d8f58650,.eb501aa8-ed8b-4d8a-9384-6dd43bb0fde2{fill:#fff;}</style></defs><title>idgraphique</title><g id="3a323fba-8752-44da-afff-4338135e09ac" data-name="Calque 2"><g id="43f8d79f-e005-491a-a402-51d3f40aea2a" data-name="Calque 1"><path class="b533d5b0-9349-4c14-825c-0721f7c6d370" d="M41.44.32A41.44,41.44,0,0,1,82.89,41.76c0,21.64-19.74,37.67-33.18,52.42V82.38A41.45,41.45,0,1,1,41.44.32Z"/><path class="84a402e0-77bd-4fb1-918e-2bb1d8f58650" d="M29.66,42.3a7,7,0,1,0-7,7,7,7,0,0,0,7-7Z"/><path class="84a402e0-77bd-4fb1-918e-2bb1d8f58650" d="M48.45,42.3a7,7,0,1,0-7,7,7,7,0,0,0,7-7Z"/><path class="84a402e0-77bd-4fb1-918e-2bb1d8f58650" d="M67.25,42.3a7,7,0,1,0-7,7,7,7,0,0,0,7-7Z"/><path class="84a402e0-77bd-4fb1-918e-2bb1d8f58650" d="M559.62,15.34h.61a2.41,2.41,0,0,0,.62-.08,1,1,0,0,0,.48-.28.89.89,0,0,0,.18-.61.91.91,0,0,0-.12-.51.79.79,0,0,0-.31-.28,1.37,1.37,0,0,0-.44-.13,3.74,3.74,0,0,0-.49,0h-1.55v1.92Zm2.55,3h-.79l-1.55-2.5h-1.22v2.5h-.67V12.94h2.37a2.24,2.24,0,0,1,1.5.38,1.35,1.35,0,0,1,.42,1.05,1.63,1.63,0,0,1-.13.68,1.16,1.16,0,0,1-.36.45,1.59,1.59,0,0,1-.54.26,3,3,0,0,1-.67.1l1.64,2.5Zm-2.42,1.51a4.06,4.06,0,0,0,1.63-.33,3.88,3.88,0,0,0,1.29-.9,4.22,4.22,0,0,0,.84-1.34,4.63,4.63,0,0,0,0-3.32,4.15,4.15,0,0,0-.84-1.33,3.94,3.94,0,0,0-1.29-.89,4.25,4.25,0,0,0-3.27,0,4,4,0,0,0-1.3.89A4.09,4.09,0,0,0,556,14a4.63,4.63,0,0,0,0,3.32,4.15,4.15,0,0,0,.85,1.34,3.9,3.9,0,0,0,1.3.9,4.09,4.09,0,0,0,1.64.33Zm0,.64a4.71,4.71,0,0,1-1.89-.38,4.91,4.91,0,0,1-2.59-2.59,4.85,4.85,0,0,1,0-3.78,4.87,4.87,0,0,1,1-1.54,5,5,0,0,1,1.54-1,4.83,4.83,0,0,1,3.78,0,5,5,0,0,1,1.54,1,4.8,4.8,0,0,1,1,1.54,4.91,4.91,0,0,1,0,3.78,4.88,4.88,0,0,1-1,1.54,5,5,0,0,1-1.54,1,4.7,4.7,0,0,1-1.88.38Z"/><path class="84a402e0-77bd-4fb1-918e-2bb1d8f58650" d="M218.67,20.94H208.33v3l-.82-.48a21.37,21.37,0,1,0,0,36.93l.82-.48V63A10.35,10.35,0,0,1,204,69.93a9.79,9.79,0,0,1-3.27,1.43,14.94,14.94,0,0,1-3.7.43c-8.79.05-12.78-4.8-13.84-6.38l-7,7.39a17.47,17.47,0,0,0,6.35,5.55A30.59,30.59,0,0,0,197,81.59a22.69,22.69,0,0,0,13.42-3.95,20.39,20.39,0,0,0,8.18-15.33l0-41.37ZM198.31,53.53a11.63,11.63,0,0,1,0-23.26,11.31,11.31,0,0,1,9.48,5.19V48.35a11.31,11.31,0,0,1-9.48,5.19Z"/><line class="eb501aa8-ed8b-4d8a-9384-6dd43bb0fde2" x1="286.65" y1="20.94" x2="286.65" y2="21.92"/><path class="84a402e0-77bd-4fb1-918e-2bb1d8f58650" d="M314.4,60.21l.3.18a21.37,21.37,0,1,0,0-36.93l-.3.18V20.94H303.53V83.22H314.4v-23Zm9.5-29.92a11.63,11.63,0,0,1,0,23.26,11.31,11.31,0,0,1-9.48-5.19V35.47a11.31,11.31,0,0,1,9.48-5.19Z"/><path class="84a402e0-77bd-4fb1-918e-2bb1d8f58650" d="M390.22,26.83a15.57,15.57,0,0,0-9.61-7.61,19,19,0,0,0-6-.91,18.3,18.3,0,0,0-11.78,4.27V.15H352V62.88h10.87V34.58c2.69-3.77,6.11-6.58,10-6.33,5.89.38,8.16,4.05,9,6.91a15.64,15.64,0,0,1,.48,4.52v23.2h10.95V41a47.67,47.67,0,0,0-.47-6.85,23.88,23.88,0,0,0-2.54-7.35Z"/><polygon class="84a402e0-77bd-4fb1-918e-2bb1d8f58650" points="411.73 20.89 400.86 20.89 400.86 62.97 411.73 62.97 411.73 20.89 411.73 20.89"/><path class="84a402e0-77bd-4fb1-918e-2bb1d8f58650" d="M413.48,7.27a7.19,7.19,0,1,0-7.19,7.19,7.19,7.19,0,0,0,7.19-7.19Z"/><path class="84a402e0-77bd-4fb1-918e-2bb1d8f58650" d="M450.55,23.51l-.28-.16a21.18,21.18,0,0,0-10.72-2.92,21.43,21.43,0,1,0,10.73,40l.28-.16V83.11h10.87V46.32h0V36.17h0V20.38H450.55v3.13Zm-9.48,6.7a11.3,11.3,0,0,1,9.48,5.21V48.36a11.3,11.3,0,0,1-9.48,5.21,11.68,11.68,0,0,1,0-23.36Z"/><path class="84a402e0-77bd-4fb1-918e-2bb1d8f58650" d="M498,62.9h10.87v-42H498V47c-2.69,3.77-6.11,6.58-10,6.33-5.89-.38-8.16-4.05-9-6.91a15.64,15.64,0,0,1-.48-4.52v-21H467.54V40.57a47.66,47.66,0,0,0,.47,6.85,23.88,23.88,0,0,0,2.54,7.35,15.57,15.57,0,0,0,9.61,7.61,19,19,0,0,0,6,.91A18.3,18.3,0,0,0,498,59V62.9Z"/><path class="84a402e0-77bd-4fb1-918e-2bb1d8f58650" d="M534.5,28.94c4.72,0,8.56,3.17,9,7.21H525.46c.47-4,4.31-7.21,9-7.21Zm2.18,15.38H554.6a19.46,19.46,0,0,0-.06-8A20.47,20.47,0,0,0,519,27.69a19.22,19.22,0,0,0-3.27,5.39,22.16,22.16,0,0,0-1.11,3.27,21.39,21.39,0,0,0-.65,5.17,21.62,21.62,0,0,0,.2,2.8,22.08,22.08,0,0,0,22,19,22.33,22.33,0,0,0,16.85-7.62l-2.63-2.68-4.06-4.14a12.72,12.72,0,0,1-22.48-4.6h12.77Z"/><path class="84a402e0-77bd-4fb1-918e-2bb1d8f58650" d="M250.33,31.45l1-10.67a19.94,19.94,0,0,0-3.47-.28,18.35,18.35,0,0,0-11.78,4.25V21H225.22V62.89h10.87V36.69c2.69-3.75,6.11-6.55,10-6.3a11.27,11.27,0,0,1,4.29,1.07Z"/><path class="84a402e0-77bd-4fb1-918e-2bb1d8f58650" d="M158.09,23.7l-.28-.16a21.37,21.37,0,1,0,0,36.93l.28-.16v2.6H169V47.71h0V37.61h0V.18H158.09V23.7Zm-9.48,29.93a11.63,11.63,0,0,1,0-23.26,11.31,11.31,0,0,1,9.48,5.19V48.45a11.31,11.31,0,0,1-9.48,5.19Z"/><path class="84a402e0-77bd-4fb1-918e-2bb1d8f58650" d="M285.65,60.23V63h10.87V20.94H285.65v2.79l-.36-.21a21.37,21.37,0,1,0,0,36.93l.36-.21Zm-9.56-6.62a11.63,11.63,0,0,1,0-23.26,11.31,11.31,0,0,1,9.48,5.19V48.42a11.31,11.31,0,0,1-9.48,5.19Z"/><polygon class="84a402e0-77bd-4fb1-918e-2bb1d8f58650" points="120.92 20.81 110.05 20.81 110.05 62.88 120.92 62.88 120.92 20.81 120.92 20.81"/><path class="84a402e0-77bd-4fb1-918e-2bb1d8f58650" d="M122.67,7.19a7.19,7.19,0,1,0-7.19,7.19,7.19,7.19,0,0,0,7.19-7.19Z"/></g></g></svg>