<?xml version="1.0" encoding="utf-8"?>
<!-- Generator: Adobe Illustrator 23.0.1, SVG Export Plug-In . SVG Version: 6.00 Build 0)  -->
<svg version="1.1" id="Calque_1" xmlns="http://www.w3.org/2000/svg" xmlns:xlink="http://www.w3.org/1999/xlink" x="0px" y="0px"
	 viewBox="0 0 362.5 67.4" style="enable-background:new 0 0 362.5 67.4;" xml:space="preserve">
<style type="text/css">
	.st0{fill:#FFFFFF;}
	.st1{fill:none;stroke:#FFFFFF;stroke-width:3;stroke-miterlimit:10;}
</style>
<g>
	<g>
		<path class="st0" d="M95.7,44c-2.3,1.2-5.7,1.8-10.1,1.8c-5.2,0-9.3-1.4-12.5-4.1c-3.2-2.8-4.8-6.3-4.8-10.7c0-5,1.7-9,5.1-11.9
			s8-4.4,13.7-4.4c4,0,6.8,0.5,8.6,1.4v7.8c-2.2-1.4-4.6-2.1-7.2-2.1c-3,0-5.3,0.8-7.1,2.3c-1.7,1.5-2.6,3.7-2.6,6.4
			c0,2.6,0.8,4.7,2.5,6.2s3.9,2.3,6.8,2.3c2.6,0,5.1-0.7,7.6-2.1V44L95.7,44L95.7,44z"/>
		<path class="st0" d="M166.6,32.8h-21.9c0.4,4.3,3.4,6.5,9.2,6.5c3.7,0,6.9-0.8,9.7-2.3v6.6c-3.1,1.5-7.1,2.2-12.1,2.2
			c-5.4,0-9.6-1.3-12.6-4s-4.5-6.4-4.5-11.1c0-4.9,1.6-8.8,4.8-11.7s7.2-4.3,11.9-4.3c4.9,0,8.7,1.3,11.4,3.9s4,6.1,4,10.5
			L166.6,32.8L166.6,32.8z M157,27.2c0-4.3-1.9-6.4-5.8-6.4c-1.7,0-3.1,0.6-4.3,1.8c-1.2,1.2-1.9,2.7-2.2,4.6H157L157,27.2z"/>
		<path class="st0" d="M202.1,45h-9.8v-4.3h-0.1c-2.3,3.3-5.6,5-10,5c-3.3,0-5.8-0.8-7.7-2.5c-1.9-1.6-2.8-3.8-2.8-6.5
			c0-5.8,3.9-9.1,11.6-10l9.1-1.1c0-3.3-2-4.9-6-4.9s-7.8,1.1-11.4,3.2V17c1.4-0.7,3.4-1.2,5.9-1.7s4.8-0.8,6.8-0.8
			c9.6,0,14.3,4.2,14.3,12.7L202.1,45L202.1,45z M192.4,33v-2l-6.1,0.7c-3.4,0.4-5,1.7-5,4c0,1,0.4,1.9,1.2,2.6c0.8,0.7,1.9,1,3.3,1
			c1.9,0,3.5-0.6,4.8-1.8C191.8,36.3,192.4,34.8,192.4,33z"/>
		<path class="st0" d="M230.2,44.7c-1.5,0.7-3.8,1.1-6.9,1.1c-7.3,0-10.9-3.4-10.9-10.1V22.1H207v-6.8h5.4V8.9l10.3-2.6v9h7.5v6.8
			h-7.5v12c0,3.1,1.4,4.6,4.2,4.6c1.1,0,2.2-0.3,3.4-0.8L230.2,44.7L230.2,44.7z"/>
		<path class="st0" d="M250.8,45h-10.3V15.3h10.3V45z"/>
		<path class="st0" d="M294.2,15.3L281.7,45h-11.8L258,15.3h11.1l5.8,18.3c0.7,2.1,1,3.8,1.1,5.3h0.1c0.2-1.4,0.6-3.1,1.2-5.1
			l6-18.5L294.2,15.3L294.2,15.3z"/>
	</g>
	<path class="st1" d="M130.7,11.6"/>
	<g>
		<g>
			<path class="st0" d="M124.4,55.8c1,0,1.6-0.4,1.6-1s-0.5-1-1.4-1c-0.4,0-0.7,0-0.8,0.1v2l0,0L124.4,55.8L124.4,55.8z"/>
			<path class="st0" d="M100,1.2v63.7h31.1V1.2H100z M104.4,16.8h11.2v5.1c1.8-2.7,4.7-5,8.4-5c1.1,0,1.2,0,2.8,0.2v8.4
				c-1.6-0.6-3-0.9-4.6-0.9c-2.3,0-3.7,0.7-5,2.2s-1.6,3.4-1.6,6v13.8h-11.2C104.4,46.6,104.4,16.8,104.4,16.8z M111.8,60.9h-2.1
				l-0.7-3.6c-0.2-0.8-0.3-1.6-0.4-2.6l0,0c-0.2,0.9-0.3,1.7-0.5,2.6l-0.8,3.6h-2.1l-2-8.4h2.1L106,56c0.2,1,0.4,2.1,0.5,2.9l0,0
				c0.1-0.9,0.3-1.9,0.6-3l0.7-3.4h2.1l0.7,3.5c0.2,1,0.3,1.9,0.5,2.8l0,0c0.1-0.9,0.3-1.9,0.5-2.9l0.7-3.4h2L111.8,60.9z
				 M120.5,60.9H115v-8.4h5.3v1.6H117v1.8h3.2v1.5H117v2h3.5V60.9z M127.4,60.3c-0.6,0.5-1.7,0.8-3.4,0.8c-1,0-1.7-0.1-2.1-0.1v-8.3
				c0.5-0.1,1.5-0.2,2.5-0.2c1.2,0,1.9,0.1,2.5,0.5c0.6,0.3,1,0.9,1,1.6c0,0.7-0.4,1.5-1.4,1.8l0,0c1,0.3,1.7,1,1.7,2.1
				C128.2,59.2,127.9,59.8,127.4,60.3z"/>
			<path class="st0" d="M124.4,57.2h-0.7v2.4c0.2,0,0.4,0,0.8,0c0.9,0,1.7-0.3,1.7-1.2C126.2,57.5,125.4,57.2,124.4,57.2z"/>
		</g>
	</g>
</g>
<ellipse class="st0" cx="245.6" cy="6.4" rx="5.6" ry="5.5"/>
<g>
	<path class="st0" d="M139.7,59.1l-1.3,3.8h-1.6l4.1-12.1h1.9l4.1,12.1h-1.7l-1.3-3.8H139.7z M143.7,57.9l-1.2-3.5
		c-0.3-0.8-0.5-1.5-0.6-2.2h0c-0.2,0.7-0.4,1.5-0.6,2.2l-1.2,3.5H143.7z"/>
	<path class="st0" d="M156,54.2c0,0.6-0.1,1.3-0.1,2.4v5.1c0,2-0.4,3.2-1.2,4c-0.8,0.8-2.1,1-3.2,1c-1,0-2.2-0.3-2.9-0.7l0.4-1.2
		c0.6,0.4,1.5,0.7,2.6,0.7c1.6,0,2.8-0.8,2.8-3v-1h0c-0.5,0.8-1.4,1.5-2.8,1.5c-2.2,0-3.7-1.8-3.7-4.3c0-3,1.9-4.6,3.9-4.6
		c1.5,0,2.3,0.8,2.7,1.5h0l0.1-1.3H156z M154.4,57.6c0-0.3,0-0.5-0.1-0.7c-0.3-0.9-1.1-1.7-2.2-1.7c-1.5,0-2.6,1.3-2.6,3.3
		c0,1.7,0.9,3.1,2.6,3.1c1,0,1.9-0.6,2.2-1.6c0.1-0.3,0.1-0.6,0.1-0.8V57.6z"/>
	<path class="st0" d="M159.5,58.8c0,2.1,1.4,3,3,3c1.1,0,1.8-0.2,2.4-0.5l0.3,1.1c-0.6,0.3-1.5,0.5-2.9,0.5c-2.7,0-4.3-1.8-4.3-4.4
		c0-2.6,1.6-4.7,4.1-4.7c2.8,0,3.6,2.5,3.6,4.1c0,0.3,0,0.6-0.1,0.7H159.5z M164.1,57.7c0-1-0.4-2.6-2.2-2.6c-1.6,0-2.3,1.5-2.4,2.6
		H164.1z"/>
	<path class="st0" d="M167.6,56.6c0-0.9,0-1.6-0.1-2.4h1.4l0.1,1.4h0c0.4-0.8,1.4-1.6,2.9-1.6c1.2,0,3.1,0.7,3.1,3.7v5.2h-1.6v-5
		c0-1.4-0.5-2.6-2-2.6c-1,0-1.9,0.7-2.1,1.6c-0.1,0.2-0.1,0.5-0.1,0.7v5.2h-1.6V56.6z"/>
	<path class="st0" d="M183.8,62.6c-0.4,0.2-1.3,0.5-2.5,0.5c-2.6,0-4.3-1.8-4.3-4.5c0-2.7,1.8-4.6,4.7-4.6c0.9,0,1.8,0.2,2.2,0.5
		l-0.4,1.2c-0.4-0.2-1-0.4-1.8-0.4c-2,0-3.1,1.5-3.1,3.3c0,2,1.3,3.3,3,3.3c0.9,0,1.5-0.2,1.9-0.4L183.8,62.6z"/>
	<path class="st0" d="M186.5,58.8c0,2.1,1.4,3,3,3c1.1,0,1.8-0.2,2.4-0.5l0.3,1.1c-0.6,0.3-1.5,0.5-2.9,0.5c-2.7,0-4.3-1.8-4.3-4.4
		c0-2.6,1.6-4.7,4.1-4.7c2.8,0,3.6,2.5,3.6,4.1c0,0.3,0,0.6-0.1,0.7H186.5z M191.1,57.7c0-1-0.4-2.6-2.2-2.6c-1.6,0-2.3,1.5-2.4,2.6
		H191.1z"/>
	<path class="st0" d="M206,50.1v10.5c0,0.8,0,1.7,0.1,2.3h-1.4l-0.1-1.5h0c-0.5,1-1.6,1.7-3,1.7c-2.1,0-3.7-1.8-3.7-4.4
		c0-2.9,1.8-4.7,3.9-4.7c1.3,0,2.2,0.6,2.6,1.3h0v-5.2H206z M204.4,57.7c0-0.2,0-0.5-0.1-0.7c-0.2-1-1.1-1.8-2.3-1.8
		c-1.6,0-2.6,1.4-2.6,3.4c0,1.8,0.9,3.2,2.6,3.2c1.1,0,2-0.7,2.3-1.9c0.1-0.2,0.1-0.4,0.1-0.7V57.7z"/>
	<path class="st0" d="M210.4,51.7c0,0.5-0.4,1-1,1c-0.6,0-1-0.4-1-1c0-0.6,0.4-1,1-1C210,50.8,210.4,51.2,210.4,51.7z M208.6,62.9
		v-8.7h1.6v8.7H208.6z"/>
	<path class="st0" d="M220.3,54.2c0,0.6-0.1,1.3-0.1,2.4v5.1c0,2-0.4,3.2-1.2,4c-0.8,0.8-2.1,1-3.2,1c-1,0-2.2-0.3-2.9-0.7l0.4-1.2
		c0.6,0.4,1.5,0.7,2.6,0.7c1.6,0,2.8-0.8,2.8-3v-1h0c-0.5,0.8-1.4,1.5-2.8,1.5c-2.2,0-3.7-1.8-3.7-4.3c0-3,1.9-4.6,3.9-4.6
		c1.5,0,2.3,0.8,2.7,1.5h0l0.1-1.3H220.3z M218.7,57.6c0-0.3,0-0.5-0.1-0.7c-0.3-0.9-1.1-1.7-2.2-1.7c-1.5,0-2.6,1.3-2.6,3.3
		c0,1.7,0.9,3.1,2.6,3.1c1,0,1.9-0.6,2.2-1.6c0.1-0.3,0.1-0.6,0.1-0.8V57.6z"/>
	<path class="st0" d="M224.6,51.7c0,0.5-0.4,1-1,1c-0.6,0-1-0.4-1-1c0-0.6,0.4-1,1-1C224.2,50.8,224.6,51.2,224.6,51.7z M222.8,62.9
		v-8.7h1.6v8.7H222.8z"/>
	<path class="st0" d="M228.9,51.7v2.5h2.3v1.2h-2.3v4.7c0,1.1,0.3,1.7,1.2,1.7c0.4,0,0.7-0.1,0.9-0.1l0.1,1.2
		c-0.3,0.1-0.8,0.2-1.4,0.2c-0.7,0-1.3-0.2-1.7-0.7c-0.5-0.5-0.6-1.2-0.6-2.3v-4.8H226v-1.2h1.4v-2.1L228.9,51.7z"/>
	<path class="st0" d="M237.8,62.9l-0.1-1.1h-0.1c-0.5,0.7-1.4,1.3-2.7,1.3c-1.8,0-2.7-1.2-2.7-2.5c0-2.1,1.9-3.3,5.2-3.2v-0.2
		c0-0.7-0.2-2-2-2c-0.8,0-1.7,0.3-2.3,0.6l-0.4-1c0.7-0.5,1.8-0.8,2.9-0.8c2.7,0,3.3,1.8,3.3,3.6v3.3c0,0.8,0,1.5,0.1,2.1H237.8z
		 M237.6,58.5c-1.7,0-3.7,0.3-3.7,2c0,1,0.7,1.5,1.5,1.5c1.1,0,1.9-0.7,2.1-1.5c0.1-0.2,0.1-0.3,0.1-0.5V58.5z"/>
	<path class="st0" d="M241.7,50.1h1.6v12.8h-1.6V50.1z"/>
	<path class="st0" d="M246.8,58.8c0,2.1,1.4,3,3,3c1.1,0,1.8-0.2,2.4-0.5l0.3,1.1c-0.6,0.3-1.5,0.5-2.9,0.5c-2.7,0-4.3-1.8-4.3-4.4
		c0-2.6,1.5-4.7,4.1-4.7c2.8,0,3.6,2.5,3.6,4.1c0,0.3,0,0.6-0.1,0.7H246.8z M251.5,57.7c0-1-0.4-2.6-2.2-2.6c-1.6,0-2.3,1.5-2.4,2.6
		H251.5z"/>
</g>
</svg>
